#N canvas 161 22 1920 1050 12;
#X obj -121 471 *~;
#X floatatom -249 272 0 0 0 0 - - -;
#X obj -251 482 +~;
#X floatatom 185 430 0 0 0 0 - - -;
#X obj 39 673 line~;
#X obj 39 614 \$1 \$1;
#X obj 173 542 loadbang;
#X obj -260 686 dac~;
#X obj -252 613 *~;
#X obj -121 409 osc~ 5;
#X obj 24 586 hsl 128 15 0 1 0 0 empty empty empty -2 -8 0 10 -262144
-1 -1 12700 1;
#X obj 187 286 vsl 15 128 0 11 0 0 empty empty empty 0 -9 0 10 -262144
-1 -1 0 1;
#X text 142 238 vibrato;
#X text 85 543 volume;
#X obj -251 209 mtof;
#X msg -652 -71 60;
#X msg -289 -78 67;
#X text -96 211 glide;
#X obj -251 407 line;
#X obj -255 341 \$1 \$1;
#X msg -123 322 \$1;
#X obj -114 168 vsl 15 128 0 600 0 0 empty empty empty 0 -9 0 10 -262144
-1 -1 2214 1;
#X text -93 184 0-600;
#X obj 523 -278 bng 30 250 50 0 empty empty empty 17 7 0 10 -4034 -1
-1;
#X floatatom -110 -197 5 0 0 0 - - -, f 5;
#X obj -63 -330 bng 30 250 50 0 empty empty empty 17 7 0 10 -258113
-1 -1;
#X text 32 -292 reset;
#X text 211 288 0-11;
#X text 73 515 0-1;
#X text -469 -290 note trigger;
#X msg -305 -39 60;
#X msg -253 74 64;
#X obj -285 -144 sel 1 2 3 4 5 6 7 8 9 10 11 12 13 14 15 16 17 18 19
20 21 22 23 24 25 26 27 28 29 30 31 32 33 34 35 36 37 38 39 40 41;
#X text -611 -135 sequence of our notes;
#X floatatom 393 707 5 0 0 0 - - -, f 5;
#X msg 172 598 150;
#X obj 510 50 - 70;
#X obj -277 -329 r note;
#X obj 1169 488 *~;
#X floatatom 1041 289 0 0 0 0 - - -;
#X obj 1039 499 +~;
#X floatatom 1475 447 0 0 0 0 - - -;
#X obj 1329 690 line~;
#X obj 1327 650 \$1 \$1;
#X obj 1463 559 loadbang;
#X obj 1038 630 *~;
#X obj 1169 426 osc~ 5;
#X obj 1314 603 hsl 128 15 0 1 0 0 empty empty empty -2 -8 0 10 -262144
-1 -1 12700 1;
#X obj 1477 303 vsl 15 128 0 11 0 0 empty empty empty 0 -9 0 10 -262144
-1 -1 0 1;
#X text 1432 255 vibrato;
#X text 1375 560 volume;
#X obj 538 199 mtof;
#X text 1194 228 glide;
#X obj 1039 424 line;
#X obj 1035 358 \$1 \$1;
#X msg 1167 339 \$1;
#X obj 1176 185 vsl 15 128 0 600 0 0 empty empty empty 0 -9 0 10 -262144
-1 -1 2214 1;
#X text 1197 201 0-600;
#X text 1501 305 0-11;
#X text 1363 532 0-1;
#X obj 1005 -127 sel 1 2 3 4 5 6 7 8 9 10 11 12 13 14 15 16 17 18 19
20 21 22 23 24 25 26 27 28 29 30 31 32 33 34 35 36 37 38 39 40 41;
#X text 679 -118 sequence of our notes;
#X obj 1683 445 r x;
#X obj 1688 513 m_scale 0 127 0 1;
#X floatatom 1687 580 5 0 0 0 - - -, f 5;
#X obj 1673 633 - 0.05;
#X obj 1685 702 hsl 128 15 0 1 0 0 empty empty empty -2 -8 0 10 -262144
-1 -1 0 1;
#X floatatom 1683 724 5 0 0 0 - - -, f 5;
#X msg 1462 615 150;
#X obj 1800 11 r y;
#X floatatom 1800 315 5 0 0 0 - - -, f 5;
#X obj 1800 67 - 70;
#X obj 1799 118 vsl 15 128 0 57 0 0 empty empty empty 0 -9 0 10 -262144
-1 -1 0 1;
#X obj 1349 139 m_scale 0 127 0 600;
#X obj 1349 82 r z;
#X msg 899 -22 64;
#X msg 812 -23 60;
#X msg 1236 -20 60;
#X msg 635 83 65;
#X text 62 -319 polyphonic welsh national anthem;
#X text -766 393 simon kilshaw;
#X obj -679 402 sel 42 43 44 45 46 47 48 49 50 51 52 53 54 55 56 57
58 59 60 61 62 63 64 65 66 67 68;
#X floatatom -326 256 5 0 0 0 - - -, f 5;
#X msg -490 443 60;
#X msg -377 442 62;
#X msg -647 496 67;
#X msg -613 495 72;
#X msg -576 493 72;
#X msg -530 497 74;
#X msg -495 496 76;
#X msg -457 496 74;
#X msg -425 494 72;
#X obj 1709 -175 sel 42 43 44 45 46 47 48 49 50 51 52 53 54 55 56 57
58 59 60 61 62 63 64 65 66 67 68;
#X msg 1715 -133 64;
#X msg 1799 -45 76;
#X msg 1833 -46 76;
#X msg 1870 -48 76;
#X msg 1916 -44 67;
#X msg 1989 -45 65;
#X msg 2021 -47 64;
#N canvas 213 45 707 750 controller 1;
#X floatatom 65 58 5 0 0 0 - - -, f 5;
#X floatatom -45 264 5 0 0 0 - - -, f 5;
#X msg 65 77 open 1;
#X obj 152 223 print;
#X floatatom 162 252 5 0 0 0 - - -, f 5;
#X floatatom 204 253 5 0 0 0 - - -, f 5;
#X msg 156 309 0 19 19;
#X obj -9 732 / 26000;
#X floatatom 6 770 5 0 0 0 - - -, f 5;
#X obj 6 807 vsl 15 128 0 1 0 0 empty empty empty 0 -9 0 10 -262144
-1 -1 12700 1;
#X obj 263 943 vsl 15 128 0 1 0 0 empty empty empty 0 -9 0 10 -262144
-1 -1 10969 1;
#X obj 354 586 vsl 15 128 0 1 0 0 empty empty empty 0 -9 0 10 -262144
-1 -1 8235 1;
#X obj 301 776 line~;
#X obj 346 738 \$1 \$1;
#X msg 392 734 100;
#X obj 424 725 loadbang;
#X floatatom 281 254 5 0 0 0 - - -, f 5;
#X floatatom 240 253 5 0 0 0 - - -, f 5;
#X floatatom 323 257 5 0 0 0 - - -, f 5;
#X floatatom 354 262 5 0 0 0 - - -, f 5;
#X msg 16 77 close;
#X obj 218 162 tgl 15 0 empty empty empty 17 7 0 10 -262144 -1 -1 0
1;
#X obj 67 1080 s voll;
#X obj -7 38 bng 15 250 50 0 redo empty empty 17 7 0 10 -262144 -1
-1;
#X text 11 37 reset;
#X msg 115 5 devices;
#X obj 317 201 print;
#X floatatom 346 445 5 0 0 0 - - -, f 5;
#X obj 348 452 + 32768;
#X obj 347 472 / 1600;
#X floatatom 344 545 5 0 0 0 - - -, f 5;
#X floatatom 188 412 5 0 0 0 - - -, f 5;
#X obj 190 439 + 32768;
#X floatatom 186 512 5 0 0 0 - - -, f 5;
#X obj 185 485 - 2;
#X floatatom 477 -122 5 0 0 0 - - -, f 5;
#X obj 479 -115 + 32768;
#X obj 478 -95 / 1600;
#X floatatom 475 -22 5 0 0 0 - - -, f 5;
#X obj 474 -49 - 2;
#X obj 35 684 * -1;
#X obj 41 707 + 1;
#X obj 262 921 / 20;
#X obj 188 456 / 1200;
#X obj 343 518 - 1;
#X obj 344 569 / 20;
#X obj 216 135 > 850;
#X obj 299 218 sel 0;
#X obj 5 142 serialtest;
#X obj 513 926 * 16;
#X obj 510 968 s vib;
#X obj 265 1113 s glide;
#X obj 312 135 change;
#X obj 394 111 sel 1;
#X obj 398 146 bng 15 250 50 0 empty empty empty 17 7 0 10 -262144
-1 -1;
#X obj 385 182 s note;
#X obj 23 328 sel 0;
#X obj 26 302 change;
#X obj 28 376 bng 15 250 50 0 empty empty empty 17 7 0 10 -262144 -1
-1;
#X obj 32 411 s resetter;
#X floatatom 477 863 5 0 0 0 - - -, f 5;
#X obj 477 835 m_scale 0 0.5 1 0;
#X floatatom 89 973 5 0 0 0 - - -, f 5;
#X obj 263 1079 * 700;
#X obj 59 881 - 0.5;
#X floatatom 176 1072 5 0 0 0 - - -, f 5;
#X obj 87 1027 - 0.3;
#X obj 126 1057 - 0.4;
#X obj 100 799 / 5;
#X obj 65 936 m_scale 0 1 0 0.7;
#X floatatom 369 1095 5 0 0 0 - - -, f 5;
#X obj 398 1064 m_scale 300 400 0 400;
#X obj 358 1022 m_scale 300 700 0 400;
#X obj 37 37 makenote 64;
#X obj 37 37;
#X obj 37 37;
#X obj 37 37;
#X msg 37 37;
#X obj 449 1096 - 200;
#X obj 119 194 unpack 0 0 0 0 0 0 0 0 0;
#X obj 6 115 comport 11 38400;
#X connect 0 0 2 0;
#X connect 1 0 7 0;
#X connect 1 0 57 0;
#X connect 2 0 80 0;
#X connect 7 0 8 0;
#X connect 10 0 63 0;
#X connect 11 0 13 0;
#X connect 11 0 61 0;
#X connect 13 0 12 0;
#X connect 14 0 13 1;
#X connect 15 0 14 0;
#X connect 20 0 80 0;
#X connect 21 0 52 0;
#X connect 25 0 80 0;
#X connect 27 0 28 0;
#X connect 28 0 29 0;
#X connect 29 0 44 0;
#X connect 30 0 45 0;
#X connect 31 0 32 0;
#X connect 32 0 43 0;
#X connect 33 0 68 0;
#X connect 34 0 33 0;
#X connect 35 0 36 0;
#X connect 36 0 37 0;
#X connect 37 0 39 0;
#X connect 38 0 42 0;
#X connect 39 0 38 0;
#X connect 40 0 41 0;
#X connect 42 0 40 0;
#X connect 42 0 10 0;
#X connect 43 0 34 0;
#X connect 44 0 30 0;
#X connect 45 0 11 0;
#X connect 46 0 21 0;
#X connect 48 0 79 0;
#X connect 49 0 50 0;
#X connect 52 0 53 0;
#X connect 53 0 54 0;
#X connect 54 0 55 0;
#X connect 56 0 58 0;
#X connect 57 0 56 0;
#X connect 58 0 59 0;
#X connect 60 0 49 0;
#X connect 61 0 60 0;
#X connect 62 0 66 0;
#X connect 63 0 78 0;
#X connect 64 0 69 0;
#X connect 66 0 67 0;
#X connect 67 0 22 0;
#X connect 67 0 65 0;
#X connect 68 0 9 0;
#X connect 68 0 64 0;
#X connect 69 0 62 0;
#X connect 72 0 51 0;
#X connect 72 0 71 0;
#X connect 72 0 70 0;
#X connect 78 0 72 0;
#X connect 79 0 47 0;
#X connect 79 0 1 0;
#X connect 79 1 46 0;
#X connect 79 3 31 0;
#X connect 79 4 27 0;
#X connect 79 5 35 0;
#X connect 80 0 48 0;
#X restore -701 -113 pd controller;
#X obj 59 65 r glide;
#X obj 510 -6 r vib;
#X obj 393 428 r voll;
#X floatatom 140 78 5 0 0 0 - - -, f 5;
#X floatatom 469 442 5 0 0 0 - - -, f 5;
#X obj 1507 244 r vib;
#X obj 1307 213 r glide;
#X obj 1310 565 r voll;
#X obj -22 -321 r resetter;
#X obj -178 -265 bng 15 250 50 0 empty empty empty 17 7 0 10 -262144
-1 -1;
#X obj 1794 250 m_scale 0 75 11 0;
#X obj 700 445 vsl 15 128 0 127 0 0 empty empty empty 0 -9 0 10 -262144
-1 -1 0 1;
#X obj 702 414 r z;
#X obj 695 577 m_scale 0 127 0 400;
#N canvas 145 116 1920 808 harm 0;
#X floatatom 1051 299 0 0 0 0 - - -;
#X obj 1049 509 +~;
#X floatatom 1485 457 0 0 0 0 - - -;
#X obj 1339 700 line~;
#X obj 1337 660 \$1 \$1;
#X obj 1473 569 loadbang;
#X obj 1048 640 *~;
#X obj 1179 436 osc~ 5;
#X obj 1324 613 hsl 128 15 0 1 0 0 empty empty empty -2 -8 0 10 -262144
-1 -1 12700 1;
#X obj 1487 313 vsl 15 128 0 11 0 0 empty empty empty 0 -9 0 10 -262144
-1 -1 0 1;
#X text 1442 265 vibrato;
#X text 1385 570 volume;
#X obj 1049 236 mtof;
#X text 1204 238 glide;
#X obj 1049 434 line;
#X obj 1045 368 \$1 \$1;
#X msg 1177 349 \$1;
#X obj 1186 195 vsl 15 128 0 600 0 0 empty empty empty 0 -9 0 10 -262144
-1 -1 2214 1;
#X text 1207 211 0-600;
#X text 1511 315 0-11;
#X text 1373 542 0-1;
#X obj 1015 -117 sel 1 2 3 4 5 6 7 8 9 10 11 12 13 14 15 16 17 18 19
20 21 22 23 24 25 26 27 28 29 30 31 32 33 34 35 36 37 38 39 40 41;
#X text 689 -108 sequence of our notes;
#X obj 1693 455 r x;
#X obj 1698 523 m_scale 0 127 0 1;
#X floatatom 1697 590 5 0 0 0 - - -, f 5;
#X obj 1695 712 hsl 128 15 0 1 0 0 empty empty empty -2 -8 0 10 -262144
-1 -1 0 1;
#X floatatom 1693 734 5 0 0 0 - - -, f 5;
#X msg 1472 625 150;
#X obj 1810 21 r y;
#X floatatom 1810 325 5 0 0 0 - - -, f 5;
#X obj 1810 77 - 70;
#X obj 1809 128 vsl 15 128 0 57 0 0 empty empty empty 0 -9 0 10 -262144
-1 -1 0 1;
#X obj 1359 149 m_scale 0 127 0 600;
#X obj 1359 92 r z;
#X obj 1517 254 r vib;
#X obj 1317 223 r glide;
#X obj 1318 555 r voll;
#X obj 1804 260 m_scale 0 75 11 0;
#X obj 710 455 vsl 15 128 0 127 0 0 empty empty empty 0 -9 0 10 -262144
-1 -1 0 1;
#X obj 712 424 r z;
#X obj 705 587 m_scale 0 127 0 400;
#X obj 615 -95 inlet;
#X floatatom 930 290 5 0 0 0 - - -, f 5;
#X obj 1179 498 *~ 0.2;
#X msg 649 -12 53;
#X msg 1098 101 55;
#X obj 1633 92 mtof;
#X obj 1286 -325 sel 42 43 44 45 46 47 48 49 50 51 52 53 54 55 56 57
58 59 60 61 62 63 64 65 66 67 68;
#X msg 1819 -46 48;
#X msg 1853 -47 55;
#X msg 1890 -49 55;
#X msg 1936 -45 43;
#X msg 2009 -46 43;
#X msg 2041 -48 48;
#X msg 648 24 53;
#X obj 1683 643 - 0.05;
#X obj 1085 574 phasor~;
#X msg 1971 -46 43;
#X obj 381 510 outlet;
#X msg 648 -44 53;
#X msg 740 -45 53;
#X msg 828 -49 53;
#X msg 928 -52 53;
#X msg 1011 -51 53;
#X msg 1099 -51 53;
#X msg 1183 -54 57;
#X msg 1269 -53 53;
#X msg 1363 -51 53;
#X msg 1454 -52 55;
#X msg 1543 -51 53;
#X msg 1631 -52 53;
#X msg 735 -13 53;
#X msg 909 -12 52;
#X msg 822 -13 53;
#X msg 995 -12 53;
#X msg 1078 -12 53;
#X msg 1159 -10 53;
#X msg 1246 -10 57;
#X msg 1331 -11 58;
#X msg 1414 -8 60;
#X msg 1500 -7 57;
#X msg 731 28 53;
#X msg 834 28 53;
#X msg 922 28 53;
#X msg 996 30 57;
#X msg 646 58 55;
#X msg 734 64 58;
#X msg 832 62 57;
#X msg 923 63 53;
#X msg 994 66 57;
#X msg 645 93 57;
#X msg 733 97 60;
#X msg 824 98 60;
#X msg 912 98 60;
#X msg 1047 101 58;
#X msg 995 101 60;
#X msg 1155 117 57;
#X msg 1725 -123 58;
#X msg 1760 -123 60;
#X msg 1805 -124 60;
#X msg 1841 -124 60;
#X msg 1873 -124 60;
#X msg 1908 -124 53;
#X msg 1953 -125 53;
#X msg 1988 -125 53;
#X msg 2022 -125 55;
#X msg 1722 -94 55;
#X msg 1792 -94 57;
#X msg 1757 -94 60;
#X msg 1827 -94 55;
#X msg 1860 -94 53;
#X msg 1895 -94 53;
#X msg 1940 -95 53;
#X msg 1975 -95 57;
#X msg 2008 -95 58;
#X msg 2042 -96 55;
#X msg 1720 -72 57;
#X obj 1059 724 dac~;
#X obj 1013 573 osc~;
#X obj 1329 635 * 0.4;
#X obj 983 615 *~ 0.4;
#X obj 1373 476 / 4;
#X obj 1078 687 lop~ 200;
#X obj 1208 641 r pass;
#X obj 592 681 rev3~ 90 90 3000 20;
#X connect 0 0 15 0;
#X connect 1 0 57 0;
#X connect 1 0 119 0;
#X connect 2 0 122 0;
#X connect 3 0 6 1;
#X connect 4 0 3 0;
#X connect 5 0 28 0;
#X connect 6 0 123 0;
#X connect 6 0 125 1;
#X connect 7 0 44 0;
#X connect 8 0 120 0;
#X connect 9 0 2 0;
#X connect 12 0 0 0;
#X connect 12 0 59 0;
#X connect 14 0 1 0;
#X connect 15 0 14 0;
#X connect 16 0 15 1;
#X connect 17 0 16 0;
#X connect 21 0 60 0;
#X connect 21 1 61 0;
#X connect 21 2 62 0;
#X connect 21 3 63 0;
#X connect 21 4 64 0;
#X connect 21 5 65 0;
#X connect 21 6 66 0;
#X connect 21 7 67 0;
#X connect 21 8 68 0;
#X connect 21 9 69 0;
#X connect 21 10 70 0;
#X connect 21 11 71 0;
#X connect 21 12 45 0;
#X connect 21 13 72 0;
#X connect 21 14 74 0;
#X connect 21 15 73 0;
#X connect 21 16 75 0;
#X connect 21 17 76 0;
#X connect 21 18 77 0;
#X connect 21 19 78 0;
#X connect 21 20 79 0;
#X connect 21 21 80 0;
#X connect 21 22 81 0;
#X connect 21 23 55 0;
#X connect 21 24 82 0;
#X connect 21 25 83 0;
#X connect 21 26 84 0;
#X connect 21 27 85 0;
#X connect 21 28 86 0;
#X connect 21 29 87 0;
#X connect 21 30 88 0;
#X connect 21 31 89 0;
#X connect 21 32 90 0;
#X connect 21 33 91 0;
#X connect 21 34 92 0;
#X connect 21 35 93 0;
#X connect 21 36 94 0;
#X connect 21 37 96 0;
#X connect 21 38 95 0;
#X connect 21 39 46 0;
#X connect 21 40 97 0;
#X connect 23 0 24 0;
#X connect 24 0 25 0;
#X connect 25 0 56 0;
#X connect 26 0 27 0;
#X connect 26 0 8 0;
#X connect 28 0 4 1;
#X connect 29 0 31 0;
#X connect 31 0 32 0;
#X connect 32 0 38 0;
#X connect 34 0 33 0;
#X connect 35 0 9 0;
#X connect 36 0 17 0;
#X connect 37 0 8 0;
#X connect 38 0 30 0;
#X connect 38 0 9 0;
#X connect 39 0 41 0;
#X connect 40 0 39 0;
#X connect 41 0 17 0;
#X connect 42 0 21 0;
#X connect 42 0 48 0;
#X connect 43 0 12 0;
#X connect 44 0 1 1;
#X connect 45 0 12 0;
#X connect 46 0 12 0;
#X connect 47 0 0 0;
#X connect 48 0 98 0;
#X connect 48 1 99 0;
#X connect 48 2 100 0;
#X connect 48 3 101 0;
#X connect 48 4 102 0;
#X connect 48 5 103 0;
#X connect 48 6 104 0;
#X connect 48 7 105 0;
#X connect 48 8 106 0;
#X connect 48 9 107 0;
#X connect 48 10 109 0;
#X connect 48 11 108 0;
#X connect 48 12 110 0;
#X connect 48 13 111 0;
#X connect 48 14 112 0;
#X connect 48 15 113 0;
#X connect 48 16 114 0;
#X connect 48 17 115 0;
#X connect 48 18 116 0;
#X connect 48 19 117 0;
#X connect 48 20 49 0;
#X connect 48 21 50 0;
#X connect 48 22 51 0;
#X connect 48 23 52 0;
#X connect 48 24 58 0;
#X connect 48 25 53 0;
#X connect 48 26 54 0;
#X connect 49 0 47 0;
#X connect 50 0 47 0;
#X connect 51 0 47 0;
#X connect 52 0 47 0;
#X connect 53 0 47 0;
#X connect 54 0 47 0;
#X connect 55 0 12 0;
#X connect 56 0 26 0;
#X connect 57 0 6 0;
#X connect 58 0 47 0;
#X connect 60 0 12 0;
#X connect 61 0 12 0;
#X connect 62 0 12 0;
#X connect 63 0 12 0;
#X connect 64 0 12 0;
#X connect 65 0 12 0;
#X connect 66 0 12 0;
#X connect 67 0 12 0;
#X connect 68 0 12 0;
#X connect 69 0 12 0;
#X connect 70 0 12 0;
#X connect 71 0 12 0;
#X connect 72 0 12 0;
#X connect 73 0 12 0;
#X connect 74 0 12 0;
#X connect 75 0 12 0;
#X connect 76 0 12 0;
#X connect 77 0 12 0;
#X connect 78 0 12 0;
#X connect 79 0 12 0;
#X connect 80 0 12 0;
#X connect 81 0 12 0;
#X connect 82 0 12 0;
#X connect 83 0 12 0;
#X connect 84 0 12 0;
#X connect 85 0 12 0;
#X connect 86 0 12 0;
#X connect 87 0 12 0;
#X connect 88 0 12 0;
#X connect 89 0 12 0;
#X connect 90 0 12 0;
#X connect 91 0 12 0;
#X connect 92 0 12 0;
#X connect 93 0 12 0;
#X connect 94 0 12 0;
#X connect 95 0 12 0;
#X connect 96 0 12 0;
#X connect 97 0 12 0;
#X connect 98 0 47 0;
#X connect 99 0 47 0;
#X connect 100 0 47 0;
#X connect 101 0 47 0;
#X connect 102 0 47 0;
#X connect 103 0 47 0;
#X connect 104 0 47 0;
#X connect 105 0 47 0;
#X connect 106 0 47 0;
#X connect 107 0 47 0;
#X connect 108 0 47 0;
#X connect 109 0 47 0;
#X connect 110 0 47 0;
#X connect 111 0 47 0;
#X connect 112 0 47 0;
#X connect 113 0 47 0;
#X connect 114 0 47 0;
#X connect 115 0 47 0;
#X connect 116 0 47 0;
#X connect 117 0 47 0;
#X connect 120 0 4 0;
#X connect 121 0 6 0;
#X connect 122 0 44 1;
#X connect 123 0 118 1;
#X connect 124 0 123 1;
#X restore -267 -194 pd harm;
#X obj 75 169 s n;
#X obj 63 132 ftom;
#X obj -251 546 osc~;
#X obj 1039 563 osc~;
#X obj 1090 556 phasor~;
#X obj -159 566 phasor~;
#X msg 71 -233 0;
#X msg 1951 -45 67;
#X obj -529 547 makenote 64 127;
#X obj -529 580 noteout 1;
#X obj -704 212 makenote 64 127;
#X obj -704 245 noteout 3;
#X obj -554 239 makenote 64 127;
#X obj -554 272 noteout 2;
#X obj -641 159 ftom;
#X obj -695 163 ftom;
#X obj 17 364 * 100;
#X obj -57 583 * 64;
#X msg -423 -249 \; pd dsp 1;
#X msg -560 -72 65;
#X msg -472 -76 69;
#X msg -372 -78 65;
#X msg -201 -78 69;
#X msg -117 -81 65;
#X msg -31 -79 60;
#X msg 63 -78 62;
#X msg 154 -79 64;
#X msg 243 -78 65;
#X msg 331 -79 62;
#X msg -651 -39 70;
#X msg -565 -40 69;
#X msg -478 -40 69;
#X msg -391 -39 67;
#X msg -222 -39 65;
#X msg -141 -37 69;
#X msg -54 -37 65;
#X msg 31 -38 67;
#X msg 114 -35 69;
#X msg 200 -34 65;
#X msg -652 -3 62;
#X msg -569 1 65;
#X msg -466 1 62;
#X msg -379 1 60;
#X msg -304 3 65;
#X msg -654 31 65;
#X msg -566 37 64;
#X msg -468 35 65;
#X msg -377 36 69;
#X msg -306 39 65;
#X msg -655 66 72;
#X msg -567 69 69;
#X msg -476 71 67;
#X msg -388 71 65;
#X msg -305 74 65;
#X msg -202 74 67;
#X msg -156 75 69;
#X msg -673 444 70;
#X msg -638 444 70;
#X msg -593 443 69;
#X msg -558 443 67;
#X msg -525 443 69;
#X msg -445 442 60;
#X msg -410 442 62;
#X msg -676 473 64;
#X msg -641 473 64;
#X msg -606 473 65;
#X msg -571 473 67;
#X msg -538 473 65;
#X msg -503 473 67;
#X msg -458 472 69;
#X msg -423 472 65;
#X msg -390 472 67;
#X msg -356 471 64;
#X msg -678 495 65;
#X msg 638 -54 53;
#X msg 730 -55 53;
#X msg 818 -59 60;
#X msg 1089 -61 60;
#X msg 918 -58 57;
#X msg 1001 -61 58;
#X msg 1173 -64 60;
#X msg 1259 -63 57;
#X msg 1353 -61 58;
#X msg 1444 -62 58;
#X msg 1533 -61 57;
#X msg 1621 -62 58;
#X msg 639 -22 62;
#X msg 725 -23 60;
#X msg 985 -22 57;
#X msg 1068 -22 60;
#X msg 1149 -20 60;
#X msg 1321 -21 60;
#X msg 1404 -18 65;
#X msg 1490 -17 60;
#X msg 638 14 58;
#X msg 721 18 62;
#X msg 824 18 58;
#X msg 911 18 57;
#X msg 986 20 60;
#X msg 636 48 60;
#X msg 724 54 60;
#X msg 822 52 60;
#X msg 913 53 60;
#X msg 984 56 60;
#X msg 723 86 65;
#X msg 814 88 64;
#X msg 985 126 60;
#X msg 1037 91 60;
#X msg 902 88 57;
#X msg 1088 91 60;
#X msg 1133 92 65;
#X msg 1750 -133 64;
#X msg 1795 -134 65;
#X msg 1830 -134 64;
#X msg 1863 -134 65;
#X msg 1978 -135 58;
#X msg 2011 -135 58;
#X msg 1712 -104 60;
#X msg 1747 -104 60;
#X msg 1782 -104 60;
#X msg 1817 -104 60;
#X msg 1850 -104 57;
#X msg 1885 -104 58;
#X msg 1930 -105 60;
#X msg 1965 -105 60;
#X msg 1998 -105 60;
#X msg 2032 -106 60;
#X msg 1710 -82 60;
#X msg 1898 -135 57;
#X msg 1943 -135 57;
#N canvas 140 225 1674 774 harm2 0;
#X floatatom 1061 309 0 0 0 0 - - -;
#X obj 1059 519 +~;
#X floatatom 1495 467 0 0 0 0 - - -;
#X obj 1349 710 line~;
#X obj 1347 670 \$1 \$1;
#X obj 1483 579 loadbang;
#X obj 1058 650 *~;
#X obj 1189 446 osc~ 5;
#X obj 1334 623 hsl 128 15 0 1 0 0 empty empty empty -2 -8 0 10 -262144
-1 -1 12700 1;
#X obj 1497 323 vsl 15 128 0 11 0 0 empty empty empty 0 -9 0 10 -262144
-1 -1 0 1;
#X text 1452 275 vibrato;
#X text 1395 580 volume;
#X obj 1059 246 mtof;
#X text 1214 248 glide;
#X obj 1059 444 line;
#X obj 1055 378 \$1 \$1;
#X msg 1187 359 \$1;
#X obj 1196 205 vsl 15 128 0 600 0 0 empty empty empty 0 -9 0 10 -262144
-1 -1 2214 1;
#X text 1217 221 0-600;
#X text 1521 325 0-11;
#X text 1383 552 0-1;
#X obj 1025 -107 sel 1 2 3 4 5 6 7 8 9 10 11 12 13 14 15 16 17 18 19
20 21 22 23 24 25 26 27 28 29 30 31 32 33 34 35 36 37 38 39 40 41;
#X text 699 -98 sequence of our notes;
#X obj 1703 465 r x;
#X obj 1708 533 m_scale 0 127 0 1;
#X floatatom 1707 600 5 0 0 0 - - -, f 5;
#X obj 1705 722 hsl 128 15 0 1 0 0 empty empty empty -2 -8 0 10 -262144
-1 -1 0 1;
#X floatatom 1703 744 5 0 0 0 - - -, f 5;
#X msg 1482 635 150;
#X obj 1820 31 r y;
#X floatatom 1820 335 5 0 0 0 - - -, f 5;
#X obj 1820 87 - 70;
#X obj 1819 138 vsl 15 128 0 57 0 0 empty empty empty 0 -9 0 10 -262144
-1 -1 0 1;
#X obj 1369 159 m_scale 0 127 0 600;
#X obj 1369 102 r z;
#X obj 1527 264 r vib;
#X obj 1327 233 r glide;
#X obj 1328 565 r voll;
#X obj 1814 270 m_scale 0 75 11 0;
#X obj 720 465 vsl 15 128 0 127 0 0 empty empty empty 0 -9 0 10 -262144
-1 -1 0 1;
#X obj 722 434 r z;
#X obj 715 597 m_scale 0 127 0 400;
#X obj 625 -85 inlet;
#X floatatom 940 300 5 0 0 0 - - -, f 5;
#X obj 1189 508 *~ 0.2;
#X obj 1643 102 mtof;
#X obj 1296 -315 sel 42 43 44 45 46 47 48 49 50 51 52 53 54 55 56 57
58 59 60 61 62 63 64 65 66 67 68;
#X msg 1829 -36 48;
#X msg 1863 -37 55;
#X msg 1900 -39 55;
#X msg 1946 -35 43;
#X msg 2019 -36 43;
#X msg 2051 -38 48;
#X obj 1693 653 - 0.05;
#X obj 1121 592 phasor~;
#X msg 1981 -36 43;
#X obj 391 520 outlet;
#X obj 1100 746 dac~;
#X msg 933 73 53;
#X msg 658 -34 41;
#X msg 750 -35 41;
#X msg 838 -39 41;
#X msg 938 -42 41;
#X msg 1021 -41 41;
#X msg 1109 -41 41;
#X msg 1193 -44 41;
#X msg 1279 -43 41;
#X obj 1339 645 * 0.8;
#X floatatom 591 -37 5 0 0 0 - - -, f 5;
#X floatatom 883 267 5 0 0 0 - - -, f 5;
#X msg 1373 -41 45;
#X msg 1464 -42 43;
#X msg 1553 -41 48;
#X msg 1641 -42 45;
#X msg 659 -2 43;
#X msg 832 -3 48;
#X msg 745 -3 45;
#X msg 919 -2 48;
#X msg 1005 -2 48;
#X msg 1088 -2 45;
#X msg 1169 0 41;
#X msg 1256 0 41;
#X msg 1341 -1 41;
#X msg 1424 2 41;
#X msg 1510 3 45;
#X msg 658 34 46;
#X msg 741 38 46;
#X msg 844 38 46;
#X msg 932 38 48;
#X msg 1006 40 48;
#X msg 656 68 48;
#X obj 1037 295 ftom;
#X floatatom 1019 320 5 0 0 0 - - -, f 5;
#X msg 744 74 48;
#X msg 842 72 53;
#X msg 1004 76 53;
#X msg 654 103 53;
#X msg 743 107 41;
#X msg 834 108 43;
#X msg 922 108 45;
#X msg 1005 111 48;
#X msg 1057 111 48;
#X msg 1108 111 48;
#X msg 1165 127 48;
#X msg 1735 -113 48;
#X msg 1770 -113 48;
#X msg 1815 -114 48;
#X msg 1851 -114 48;
#X msg 1918 -114 45;
#X msg 1883 -114 53;
#X msg 1963 -115 45;
#X msg 1998 -115 46;
#X msg 1732 -84 48;
#X msg 1767 -84 48;
#X msg 1802 -84 53;
#X msg 1836 -84 52;
#X msg 2032 -115 43;
#X msg 1870 -84 50;
#X msg 1905 -84 49;
#X msg 1950 -85 48;
#X msg 1985 -85 48;
#X msg 2018 -85 48;
#X msg 2052 -86 48;
#X msg 1730 -62 41;
#X obj 993 602 osc~;
#X obj 1383 486 / 4;
#X obj 1162 705 lop~ 200;
#X obj 1220 637 r pass;
#X obj 602 691 rev3~ 90 90 3000 20;
#X connect 0 0 15 0;
#X connect 1 0 54 0;
#X connect 2 0 125 0;
#X connect 3 0 6 1;
#X connect 4 0 3 0;
#X connect 5 0 28 0;
#X connect 6 0 126 0;
#X connect 6 0 128 1;
#X connect 7 0 44 0;
#X connect 8 0 67 0;
#X connect 9 0 2 0;
#X connect 12 0 0 0;
#X connect 12 0 56 0;
#X connect 12 0 69 0;
#X connect 12 0 91 0;
#X connect 14 0 1 0;
#X connect 15 0 14 0;
#X connect 16 0 15 1;
#X connect 17 0 16 0;
#X connect 21 0 59 0;
#X connect 21 1 60 0;
#X connect 21 2 61 0;
#X connect 21 3 62 0;
#X connect 21 4 63 0;
#X connect 21 5 64 0;
#X connect 21 6 65 0;
#X connect 21 7 66 0;
#X connect 21 8 70 0;
#X connect 21 9 71 0;
#X connect 21 10 72 0;
#X connect 21 11 73 0;
#X connect 21 12 74 0;
#X connect 21 13 76 0;
#X connect 21 14 75 0;
#X connect 21 15 77 0;
#X connect 21 16 78 0;
#X connect 21 17 79 0;
#X connect 21 18 80 0;
#X connect 21 19 81 0;
#X connect 21 20 82 0;
#X connect 21 21 83 0;
#X connect 21 22 84 0;
#X connect 21 23 85 0;
#X connect 21 24 86 0;
#X connect 21 25 87 0;
#X connect 21 26 88 0;
#X connect 21 27 89 0;
#X connect 21 28 90 0;
#X connect 21 29 93 0;
#X connect 21 30 94 0;
#X connect 21 31 58 0;
#X connect 21 32 95 0;
#X connect 21 33 96 0;
#X connect 21 34 97 0;
#X connect 21 35 98 0;
#X connect 21 36 99 0;
#X connect 21 37 100 0;
#X connect 21 38 101 0;
#X connect 21 39 102 0;
#X connect 21 40 103 0;
#X connect 23 0 24 0;
#X connect 24 0 25 0;
#X connect 25 0 53 0;
#X connect 26 0 27 0;
#X connect 26 0 8 0;
#X connect 28 0 4 1;
#X connect 29 0 31 0;
#X connect 31 0 32 0;
#X connect 32 0 38 0;
#X connect 34 0 33 0;
#X connect 35 0 9 0;
#X connect 36 0 17 0;
#X connect 37 0 8 0;
#X connect 38 0 30 0;
#X connect 38 0 9 0;
#X connect 39 0 41 0;
#X connect 40 0 39 0;
#X connect 41 0 17 0;
#X connect 42 0 21 0;
#X connect 42 0 46 0;
#X connect 42 0 68 0;
#X connect 43 0 12 0;
#X connect 44 0 1 1;
#X connect 45 0 0 0;
#X connect 46 0 104 0;
#X connect 46 1 105 0;
#X connect 46 2 106 0;
#X connect 46 3 107 0;
#X connect 46 4 109 0;
#X connect 46 5 108 0;
#X connect 46 6 110 0;
#X connect 46 7 111 0;
#X connect 46 8 116 0;
#X connect 46 9 112 0;
#X connect 46 10 113 0;
#X connect 46 11 114 0;
#X connect 46 12 115 0;
#X connect 46 13 117 0;
#X connect 46 14 118 0;
#X connect 46 15 119 0;
#X connect 46 16 120 0;
#X connect 46 17 121 0;
#X connect 46 18 122 0;
#X connect 46 19 123 0;
#X connect 46 20 47 0;
#X connect 46 21 48 0;
#X connect 46 22 49 0;
#X connect 46 23 50 0;
#X connect 46 24 55 0;
#X connect 46 25 51 0;
#X connect 46 26 52 0;
#X connect 47 0 45 0;
#X connect 48 0 45 0;
#X connect 49 0 45 0;
#X connect 50 0 45 0;
#X connect 51 0 45 0;
#X connect 52 0 45 0;
#X connect 53 0 26 0;
#X connect 54 0 6 0;
#X connect 55 0 45 0;
#X connect 58 0 12 0;
#X connect 59 0 12 0;
#X connect 60 0 12 0;
#X connect 61 0 12 0;
#X connect 62 0 12 0;
#X connect 63 0 12 0;
#X connect 64 0 12 0;
#X connect 65 0 12 0;
#X connect 66 0 12 0;
#X connect 67 0 4 0;
#X connect 70 0 12 0;
#X connect 71 0 12 0;
#X connect 72 0 12 0;
#X connect 73 0 12 0;
#X connect 74 0 12 0;
#X connect 75 0 12 0;
#X connect 76 0 12 0;
#X connect 77 0 12 0;
#X connect 78 0 12 0;
#X connect 79 0 12 0;
#X connect 80 0 12 0;
#X connect 81 0 12 0;
#X connect 82 0 12 0;
#X connect 83 0 12 0;
#X connect 84 0 12 0;
#X connect 85 0 12 0;
#X connect 86 0 12 0;
#X connect 87 0 12 0;
#X connect 88 0 12 0;
#X connect 89 0 12 0;
#X connect 90 0 12 0;
#X connect 91 0 92 0;
#X connect 93 0 12 0;
#X connect 94 0 12 0;
#X connect 95 0 12 0;
#X connect 96 0 12 0;
#X connect 97 0 12 0;
#X connect 98 0 12 0;
#X connect 99 0 12 0;
#X connect 100 0 12 0;
#X connect 101 0 12 0;
#X connect 102 0 12 0;
#X connect 103 0 12 0;
#X connect 104 0 45 0;
#X connect 105 0 45 0;
#X connect 106 0 45 0;
#X connect 107 0 45 0;
#X connect 108 0 45 0;
#X connect 109 0 45 0;
#X connect 110 0 45 0;
#X connect 111 0 45 0;
#X connect 112 0 45 0;
#X connect 113 0 45 0;
#X connect 114 0 45 0;
#X connect 115 0 45 0;
#X connect 116 0 45 0;
#X connect 117 0 45 0;
#X connect 118 0 45 0;
#X connect 119 0 45 0;
#X connect 120 0 45 0;
#X connect 121 0 45 0;
#X connect 122 0 45 0;
#X connect 123 0 45 0;
#X connect 124 0 6 0;
#X connect 125 0 44 1;
#X connect 126 0 57 0;
#X connect 127 0 126 1;
#X restore -371 -171 pd harm2;
#X obj 1030 703 dac~;
#X obj 582 671 rev3~ 100 90 3000 20;
#X obj 1172 715 lop~ 200;
#X obj 262 638 lop~ 200;
#X obj 941 605 r pass;
#X obj 650 -285 s pass;
#X floatatom 645 -314 5 0 0 0 - - -, f 5;
#X floatatom 1264 582 5 0 0 0 - - -, f 5;
#X obj 636 -164 r voll;
#X obj 1319 625 * 0.6;
#X obj 578 -126 * 200;
#X obj 156 -242 int;
#X obj 188 -242 + 1;
#X floatatom 162 -216 5 0 0 0 - - -, f 5;
#X connect 0 0 2 1;
#X connect 1 0 19 0;
#X connect 2 0 121 0;
#X connect 3 0 0 1;
#X connect 4 0 8 1;
#X connect 5 0 4 0;
#X connect 6 0 35 0;
#X connect 8 0 250 0;
#X connect 9 0 0 0;
#X connect 10 0 5 0;
#X connect 10 0 133 0;
#X connect 11 0 3 0;
#X connect 11 0 132 0;
#X connect 14 0 1 0;
#X connect 14 0 130 0;
#X connect 15 0 14 0;
#X connect 16 0 14 0;
#X connect 18 0 2 0;
#X connect 18 0 117 0;
#X connect 18 0 116 0;
#X connect 19 0 18 0;
#X connect 20 0 19 1;
#X connect 21 0 20 0;
#X connect 23 0 258 0;
#X connect 24 0 32 0;
#X connect 24 0 60 0;
#X connect 24 0 81 0;
#X connect 24 0 92 0;
#X connect 24 0 115 0;
#X connect 24 0 246 0;
#X connect 25 0 134 0;
#X connect 25 0 122 0;
#X connect 30 0 14 0;
#X connect 31 0 14 0;
#X connect 32 0 15 0;
#X connect 32 1 135 0;
#X connect 32 2 136 0;
#X connect 32 3 137 0;
#X connect 32 4 16 0;
#X connect 32 5 138 0;
#X connect 32 6 139 0;
#X connect 32 7 140 0;
#X connect 32 8 141 0;
#X connect 32 9 142 0;
#X connect 32 10 143 0;
#X connect 32 11 144 0;
#X connect 32 12 145 0;
#X connect 32 13 146 0;
#X connect 32 14 147 0;
#X connect 32 15 148 0;
#X connect 32 16 30 0;
#X connect 32 17 149 0;
#X connect 32 18 150 0;
#X connect 32 19 151 0;
#X connect 32 20 152 0;
#X connect 32 21 153 0;
#X connect 32 22 154 0;
#X connect 32 23 155 0;
#X connect 32 24 156 0;
#X connect 32 25 157 0;
#X connect 32 26 158 0;
#X connect 32 27 159 0;
#X connect 32 28 160 0;
#X connect 32 29 161 0;
#X connect 32 30 162 0;
#X connect 32 31 163 0;
#X connect 32 32 164 0;
#X connect 32 33 165 0;
#X connect 32 34 166 0;
#X connect 32 35 167 0;
#X connect 32 36 168 0;
#X connect 32 37 169 0;
#X connect 32 38 31 0;
#X connect 32 39 170 0;
#X connect 32 40 171 0;
#X connect 35 0 5 1;
#X connect 37 0 23 0;
#X connect 38 0 40 1;
#X connect 39 0 54 0;
#X connect 40 0 120 0;
#X connect 41 0 38 1;
#X connect 42 0 45 1;
#X connect 43 0 42 0;
#X connect 44 0 68 0;
#X connect 45 0 249 0;
#X connect 46 0 38 0;
#X connect 47 0 256 0;
#X connect 48 0 41 0;
#X connect 51 0 39 0;
#X connect 51 0 128 0;
#X connect 53 0 40 0;
#X connect 54 0 53 0;
#X connect 55 0 54 1;
#X connect 56 0 55 0;
#X connect 60 0 190 0;
#X connect 60 1 191 0;
#X connect 60 2 192 0;
#X connect 60 3 194 0;
#X connect 60 4 195 0;
#X connect 60 5 193 0;
#X connect 60 6 196 0;
#X connect 60 7 197 0;
#X connect 60 8 198 0;
#X connect 60 9 199 0;
#X connect 60 10 200 0;
#X connect 60 11 201 0;
#X connect 60 12 202 0;
#X connect 60 13 203 0;
#X connect 60 14 76 0;
#X connect 60 15 75 0;
#X connect 60 16 204 0;
#X connect 60 17 205 0;
#X connect 60 18 206 0;
#X connect 60 19 77 0;
#X connect 60 20 207 0;
#X connect 60 21 208 0;
#X connect 60 22 209 0;
#X connect 60 23 210 0;
#X connect 60 24 211 0;
#X connect 60 25 212 0;
#X connect 60 26 213 0;
#X connect 60 27 214 0;
#X connect 60 28 215 0;
#X connect 60 29 216 0;
#X connect 60 30 217 0;
#X connect 60 31 218 0;
#X connect 60 32 219 0;
#X connect 60 33 78 0;
#X connect 60 34 220 0;
#X connect 60 35 221 0;
#X connect 60 36 224 0;
#X connect 60 37 222 0;
#X connect 60 38 223 0;
#X connect 60 39 225 0;
#X connect 60 40 226 0;
#X connect 62 0 63 0;
#X connect 63 0 64 0;
#X connect 64 0 65 0;
#X connect 65 0 66 0;
#X connect 66 0 67 0;
#X connect 66 0 47 0;
#X connect 66 0 10 0;
#X connect 68 0 43 1;
#X connect 69 0 71 0;
#X connect 71 0 72 0;
#X connect 72 0 111 0;
#X connect 74 0 73 0;
#X connect 75 0 51 0;
#X connect 76 0 51 0;
#X connect 77 0 51 0;
#X connect 78 0 51 0;
#X connect 81 0 172 0;
#X connect 81 1 173 0;
#X connect 81 2 174 0;
#X connect 81 3 175 0;
#X connect 81 4 176 0;
#X connect 81 5 83 0;
#X connect 81 6 177 0;
#X connect 81 7 178 0;
#X connect 81 8 84 0;
#X connect 81 9 179 0;
#X connect 81 10 180 0;
#X connect 81 11 181 0;
#X connect 81 12 182 0;
#X connect 81 13 183 0;
#X connect 81 14 184 0;
#X connect 81 15 185 0;
#X connect 81 16 186 0;
#X connect 81 17 187 0;
#X connect 81 18 188 0;
#X connect 81 19 189 0;
#X connect 81 20 85 0;
#X connect 81 21 86 0;
#X connect 81 22 87 0;
#X connect 81 23 88 0;
#X connect 81 24 89 0;
#X connect 81 25 90 0;
#X connect 81 26 91 0;
#X connect 82 0 14 0;
#X connect 83 0 14 0;
#X connect 84 0 14 0;
#X connect 85 0 14 0;
#X connect 86 0 14 0;
#X connect 87 0 14 0;
#X connect 88 0 14 0;
#X connect 89 0 14 0;
#X connect 90 0 14 0;
#X connect 91 0 14 0;
#X connect 92 0 93 0;
#X connect 92 1 227 0;
#X connect 92 2 228 0;
#X connect 92 3 229 0;
#X connect 92 4 230 0;
#X connect 92 5 244 0;
#X connect 92 6 245 0;
#X connect 92 7 231 0;
#X connect 92 8 232 0;
#X connect 92 9 233 0;
#X connect 92 10 234 0;
#X connect 92 11 235 0;
#X connect 92 12 236 0;
#X connect 92 13 237 0;
#X connect 92 14 238 0;
#X connect 92 15 239 0;
#X connect 92 16 240 0;
#X connect 92 17 241 0;
#X connect 92 18 242 0;
#X connect 92 19 243 0;
#X connect 92 20 94 0;
#X connect 92 21 95 0;
#X connect 92 22 96 0;
#X connect 92 23 97 0;
#X connect 92 24 123 0;
#X connect 92 25 98 0;
#X connect 92 26 99 0;
#X connect 93 0 51 0;
#X connect 94 0 51 0;
#X connect 95 0 51 0;
#X connect 96 0 51 0;
#X connect 97 0 51 0;
#X connect 98 0 51 0;
#X connect 99 0 51 0;
#X connect 101 0 104 0;
#X connect 101 0 21 0;
#X connect 102 0 36 0;
#X connect 102 0 11 0;
#X connect 103 0 105 0;
#X connect 103 0 10 0;
#X connect 106 0 48 0;
#X connect 107 0 56 0;
#X connect 108 0 47 0;
#X connect 108 0 254 0;
#X connect 109 0 25 0;
#X connect 111 0 70 0;
#X connect 111 0 48 0;
#X connect 111 0 11 0;
#X connect 112 0 114 0;
#X connect 113 0 112 0;
#X connect 114 0 56 0;
#X connect 114 0 21 0;
#X connect 115 0 131 0;
#X connect 118 0 8 0;
#X connect 119 0 45 0;
#X connect 120 0 45 0;
#X connect 121 0 8 0;
#X connect 122 0 258 0;
#X connect 123 0 51 0;
#X connect 124 0 125 0;
#X connect 124 1 125 1;
#X connect 126 0 127 0;
#X connect 126 1 127 1;
#X connect 128 0 129 0;
#X connect 128 1 129 1;
#X connect 130 0 124 0;
#X connect 131 0 126 0;
#X connect 132 0 128 2;
#X connect 132 0 126 2;
#X connect 132 0 124 2;
#X connect 133 0 128 1;
#X connect 133 0 126 1;
#X connect 133 0 124 1;
#X connect 135 0 14 0;
#X connect 136 0 14 0;
#X connect 137 0 14 0;
#X connect 138 0 14 0;
#X connect 139 0 14 0;
#X connect 140 0 14 0;
#X connect 141 0 14 0;
#X connect 142 0 14 0;
#X connect 143 0 14 0;
#X connect 144 0 14 0;
#X connect 145 0 14 0;
#X connect 146 0 14 0;
#X connect 147 0 14 0;
#X connect 148 0 14 0;
#X connect 149 0 14 0;
#X connect 150 0 14 0;
#X connect 151 0 14 0;
#X connect 152 0 14 0;
#X connect 153 0 14 0;
#X connect 154 0 14 0;
#X connect 155 0 14 0;
#X connect 156 0 14 0;
#X connect 157 0 14 0;
#X connect 158 0 14 0;
#X connect 159 0 14 0;
#X connect 160 0 14 0;
#X connect 161 0 14 0;
#X connect 162 0 14 0;
#X connect 163 0 14 0;
#X connect 164 0 14 0;
#X connect 165 0 14 0;
#X connect 166 0 14 0;
#X connect 167 0 14 0;
#X connect 168 0 14 0;
#X connect 169 0 14 0;
#X connect 170 0 14 0;
#X connect 171 0 14 0;
#X connect 172 0 14 0;
#X connect 173 0 14 0;
#X connect 174 0 14 0;
#X connect 175 0 14 0;
#X connect 176 0 14 0;
#X connect 177 0 14 0;
#X connect 178 0 14 0;
#X connect 179 0 14 0;
#X connect 180 0 14 0;
#X connect 181 0 14 0;
#X connect 182 0 14 0;
#X connect 183 0 14 0;
#X connect 184 0 14 0;
#X connect 185 0 14 0;
#X connect 186 0 14 0;
#X connect 187 0 14 0;
#X connect 188 0 14 0;
#X connect 189 0 14 0;
#X connect 190 0 51 0;
#X connect 191 0 51 0;
#X connect 192 0 51 0;
#X connect 193 0 51 0;
#X connect 194 0 51 0;
#X connect 195 0 51 0;
#X connect 196 0 51 0;
#X connect 197 0 51 0;
#X connect 198 0 51 0;
#X connect 199 0 51 0;
#X connect 200 0 51 0;
#X connect 201 0 51 0;
#X connect 202 0 51 0;
#X connect 203 0 51 0;
#X connect 204 0 51 0;
#X connect 205 0 51 0;
#X connect 206 0 51 0;
#X connect 207 0 51 0;
#X connect 208 0 51 0;
#X connect 209 0 51 0;
#X connect 210 0 51 0;
#X connect 211 0 51 0;
#X connect 212 0 51 0;
#X connect 213 0 51 0;
#X connect 214 0 51 0;
#X connect 215 0 51 0;
#X connect 216 0 51 0;
#X connect 217 0 51 0;
#X connect 218 0 51 0;
#X connect 219 0 51 0;
#X connect 220 0 51 0;
#X connect 221 0 51 0;
#X connect 222 0 51 0;
#X connect 223 0 51 0;
#X connect 224 0 51 0;
#X connect 225 0 51 0;
#X connect 226 0 51 0;
#X connect 227 0 51 0;
#X connect 228 0 51 0;
#X connect 229 0 51 0;
#X connect 230 0 51 0;
#X connect 231 0 51 0;
#X connect 232 0 51 0;
#X connect 233 0 51 0;
#X connect 234 0 51 0;
#X connect 235 0 51 0;
#X connect 236 0 51 0;
#X connect 237 0 51 0;
#X connect 238 0 51 0;
#X connect 239 0 51 0;
#X connect 240 0 51 0;
#X connect 241 0 51 0;
#X connect 242 0 51 0;
#X connect 243 0 51 0;
#X connect 244 0 51 0;
#X connect 245 0 51 0;
#X connect 248 0 7 0;
#X connect 248 1 7 1;
#X connect 249 0 247 0;
#X connect 249 0 247 1;
#X connect 249 0 248 1;
#X connect 250 0 248 0;
#X connect 250 0 7 0;
#X connect 250 0 7 1;
#X connect 251 0 249 1;
#X connect 251 0 250 1;
#X connect 253 0 252 0;
#X connect 255 0 257 0;
#X connect 256 0 43 0;
#X connect 257 0 253 0;
#X connect 258 0 259 0;
#X connect 258 0 260 0;
#X connect 259 0 258 1;
#X connect 260 0 24 0;
