#N canvas 272 122 1920 1151 12;
#X obj -121 471 *~;
#X floatatom -249 272 0 0 0 0 - - -;
#X obj -251 482 +~;
#X floatatom 185 430 0 0 0 0 - - -;
#X obj 39 673 line~;
#X obj 39 614 \$1 \$1;
#X obj 173 542 loadbang;
#X obj 486 714 dac~;
#X obj -252 613 *~;
#X obj -121 409 osc~ 5;
#X obj 24 586 hsl 128 15 0 1 0 0 empty empty empty -2 -8 0 10 -262144
-1 -1 0 1;
#X obj 187 286 vsl 15 128 0 11 0 0 empty empty empty 0 -9 0 10 -262144
-1 -1 4468 1;
#X text 142 238 vibrato;
#X text 85 543 volume;
#X obj -251 209 mtof;
#X text -96 211 glide;
#X obj -251 407 line;
#X obj -255 341 \$1 \$1;
#X msg -123 322 \$1;
#X obj -114 168 vsl 15 128 0 600 0 0 empty empty empty 0 -9 0 10 -262144
-1 -1 2961 1;
#X text -93 184 0-600;
#X obj -107 -253 counter;
#X obj 523 -278 bng 30 250 50 0 empty empty empty 17 7 0 10 -4034 -1
-1;
#X floatatom -110 -197 5 0 0 0 - - -;
#X obj -63 -330 bng 30 250 50 0 empty empty empty 17 7 0 10 -258113
-1 -1;
#X text 32 -292 reset;
#X text 211 288 0-11;
#X text 73 515 0-1;
#X text -469 -290 note trigger;
#X msg -305 -39 60;
#X obj -285 -144 sel 1 2 3 4 5 6 7 8 9 10 11 12 13 14 15 16 17 18 19
20 21 22 23 24 25 26 27 28 29 30 31 32 33 34 35 36 37 38 39 40 41;
#X text -611 -135 sequence of our notes;
#X floatatom 393 707 5 0 0 0 - - -;
#X msg 172 598 150;
#X obj 510 50 - 70;
#X obj -277 -329 r note;
#X obj 1169 488 *~;
#X floatatom 1041 289 0 0 0 0 - - -;
#X obj 1039 499 +~;
#X floatatom 1475 447 0 0 0 0 - - -;
#X obj 1329 690 line~;
#X obj 1327 650 \$1 \$1;
#X obj 1463 559 loadbang;
#X obj 1038 630 *~;
#X obj 1169 426 osc~ 5;
#X obj 1314 603 hsl 128 15 0 1 0 0 empty empty empty -2 -8 0 10 -262144
-1 -1 0 1;
#X obj 1477 303 vsl 15 128 0 11 0 0 empty empty empty 0 -9 0 10 -262144
-1 -1 4468 1;
#X text 1432 255 vibrato;
#X text 1375 560 volume;
#X obj 538 199 mtof;
#X text 1194 228 glide;
#X obj 1039 424 line;
#X obj 1035 358 \$1 \$1;
#X msg 1167 339 \$1;
#X obj 1176 185 vsl 15 128 0 600 0 0 empty empty empty 0 -9 0 10 -262144
-1 -1 2961 1;
#X text 1197 201 0-600;
#X text 1501 305 0-11;
#X text 1363 532 0-1;
#X obj 1005 -127 sel 1 2 3 4 5 6 7 8 9 10 11 12 13 14 15 16 17 18 19
20 21 22 23 24 25 26 27 28 29 30 31 32 33 34 35 36 37 38 39 40 41;
#X text 679 -118 sequence of our notes;
#X obj 1683 445 r x;
#X obj 1688 513 m_scale 0 127 0 1;
#X floatatom 1687 580 5 0 0 0 - - -;
#X obj 1673 633 - 0.05;
#X obj 1685 702 hsl 128 15 0 1 0 0 empty empty empty -2 -8 0 10 -262144
-1 -1 0 1;
#X floatatom 1683 724 5 0 0 0 - - -;
#X msg 1462 615 150;
#X obj 1800 11 r y;
#X floatatom 1800 315 5 0 0 0 - - -;
#X obj 1800 67 - 70;
#X obj 1799 118 vsl 15 128 0 57 0 0 empty empty empty 0 -9 0 10 -262144
-1 -1 0 1;
#X obj 1349 139 m_scale 0 127 0 600;
#X obj 1349 82 r z;
#X text 62 -319 polyphonic welsh national anthem;
#X text -766 393 simon kilshaw;
#X obj -679 402 sel 42 43 44 45 46 47 48 49 50 51 52 53 54 55 56 57
58 59 60 61 62 63 64 65 66 67 68;
#X floatatom -326 256 5 0 0 0 - - -;
#X msg -647 496 67;
#X msg -613 495 72;
#X msg -576 493 72;
#X msg -530 497 74;
#X msg -495 496 76;
#X msg -457 496 74;
#X msg -425 494 72;
#X obj 1709 -175 sel 42 43 44 45 46 47 48 49 50 51 52 53 54 55 56 57
58 59 60 61 62 63 64 65 66 67 68;
#X msg 2139 -43 76;
#X msg 2173 -44 76;
#X msg 2210 -46 76;
#X msg 2256 -42 67;
#X msg 2329 -43 65;
#X msg 2361 -45 64;
#N canvas 213 45 707 750 controller 0;
#X floatatom 65 58 5 0 0 0 - - -;
#X floatatom -45 264 5 0 0 0 - - -;
#X msg 65 77 open 1;
#X obj 152 223 print;
#X floatatom 162 252 5 0 0 0 - - -;
#X floatatom 204 253 5 0 0 0 - - -;
#X msg 156 309 0 19 19;
#X obj -9 732 / 26000;
#X floatatom 6 770 5 0 0 0 - - -;
#X obj 6 807 vsl 15 128 0 1 0 0 empty empty empty 0 -9 0 10 -262144
-1 -1 12700 1;
#X obj 263 943 vsl 15 128 0 1 0 0 empty empty empty 0 -9 0 10 -262144
-1 -1 10702 1;
#X obj 354 586 vsl 15 128 0 1 0 0 empty empty empty 0 -9 0 10 -262144
-1 -1 4814 1;
#X obj 301 776 line~;
#X obj 346 738 \$1 \$1;
#X msg 392 734 100;
#X obj 424 725 loadbang;
#X floatatom 281 254 5 0 0 0 - - -;
#X floatatom 240 253 5 0 0 0 - - -;
#X floatatom 323 257 5 0 0 0 - - -;
#X floatatom 354 262 5 0 0 0 - - -;
#X msg 16 77 close;
#X obj 218 162 tgl 15 0 empty empty empty 17 7 0 10 -262144 -1 -1 0
1;
#X obj 67 1080 s voll;
#X obj -7 38 bng 15 250 50 0 redo empty empty 17 7 0 10 -262144 -1
-1;
#X text 11 37 reset;
#X msg 115 5 devices;
#X obj 317 201 print;
#X floatatom 346 445 5 0 0 0 - - -;
#X obj 348 452 + 32768;
#X obj 347 472 / 1600;
#X floatatom 344 545 5 0 0 0 - - -;
#X obj 6 115 comport 11 38400;
#X floatatom 188 412 5 0 0 0 - - -;
#X obj 190 439 + 32768;
#X floatatom 186 512 5 0 0 0 - - -;
#X obj 185 485 - 2;
#X floatatom 477 -122 5 0 0 0 - - -;
#X obj 479 -115 + 32768;
#X obj 478 -95 / 1600;
#X floatatom 475 -22 5 0 0 0 - - -;
#X obj 474 -49 - 2;
#X obj 35 684 * -1;
#X obj 41 707 + 1;
#X obj 262 921 / 20;
#X obj 188 456 / 1200;
#X obj 343 518 - 1;
#X obj 344 569 / 20;
#X obj 216 135 > 850;
#X obj 299 218 sel 0;
#X obj 5 142 serialtest;
#X obj 513 926 * 16;
#X obj 510 968 s vib;
#X obj 265 1113 s glide;
#X obj 312 135 change;
#X obj 394 111 sel 1;
#X obj 398 146 bng 15 250 50 0 empty empty empty 17 7 0 10 -262144
-1 -1;
#X obj 385 182 s note;
#X obj 23 328 sel 0;
#X obj 26 302 change;
#X obj 28 376 bng 15 250 50 0 empty empty empty 17 7 0 10 -262144 -1
-1;
#X obj 32 411 s resetter;
#X floatatom 477 863 5 0 0 0 - - -;
#X obj 477 835 m_scale 0 0.5 1 0;
#X floatatom 89 973 5 0 0 0 - - -;
#X obj 263 1079 * 700;
#X obj 59 881 - 0.5;
#X floatatom 176 1072 5 0 0 0 - - -;
#X obj 87 1027 - 0.3;
#X obj 126 1057 - 0.4;
#X obj 100 799 / 5;
#X obj 65 936 m_scale 0 1 0 0.7;
#X floatatom 369 1095 5 0 0 0 - - -;
#X obj 398 1064 m_scale 300 400 0 400;
#X obj 358 1022 m_scale 300 700 0 400;
#X obj 37 37 makenote 64;
#X obj 37 37;
#X obj 37 37;
#X obj 37 37;
#X msg 37 37;
#X obj 449 1096 - 150;
#X obj 119 194 unpack 0 0 0 0 0 0 0 0 0;
#X connect 0 0 2 0;
#X connect 1 0 7 0;
#X connect 1 0 58 0;
#X connect 2 0 31 0;
#X connect 7 0 8 0;
#X connect 10 0 64 0;
#X connect 11 0 13 0;
#X connect 11 0 62 0;
#X connect 13 0 12 0;
#X connect 14 0 13 1;
#X connect 15 0 14 0;
#X connect 20 0 31 0;
#X connect 21 0 53 0;
#X connect 25 0 31 0;
#X connect 27 0 28 0;
#X connect 28 0 29 0;
#X connect 29 0 45 0;
#X connect 30 0 46 0;
#X connect 31 0 49 0;
#X connect 32 0 33 0;
#X connect 33 0 44 0;
#X connect 34 0 69 0;
#X connect 35 0 34 0;
#X connect 36 0 37 0;
#X connect 37 0 38 0;
#X connect 38 0 40 0;
#X connect 39 0 43 0;
#X connect 40 0 39 0;
#X connect 41 0 42 0;
#X connect 43 0 41 0;
#X connect 43 0 10 0;
#X connect 44 0 35 0;
#X connect 45 0 30 0;
#X connect 46 0 11 0;
#X connect 47 0 21 0;
#X connect 49 0 80 0;
#X connect 50 0 51 0;
#X connect 53 0 54 0;
#X connect 54 0 55 0;
#X connect 55 0 56 0;
#X connect 57 0 59 0;
#X connect 58 0 57 0;
#X connect 59 0 60 0;
#X connect 61 0 50 0;
#X connect 62 0 61 0;
#X connect 63 0 67 0;
#X connect 64 0 79 0;
#X connect 65 0 70 0;
#X connect 67 0 68 0;
#X connect 68 0 22 0;
#X connect 68 0 66 0;
#X connect 69 0 9 0;
#X connect 69 0 65 0;
#X connect 70 0 63 0;
#X connect 73 0 52 0;
#X connect 73 0 72 0;
#X connect 73 0 71 0;
#X connect 79 0 73 0;
#X connect 80 0 48 0;
#X connect 80 0 1 0;
#X connect 80 1 47 0;
#X connect 80 3 32 0;
#X connect 80 4 27 0;
#X connect 80 5 36 0;
#X restore -701 -113 pd controller;
#X obj 59 65 r glide;
#X obj 510 -6 r vib;
#X obj 393 428 r voll;
#X floatatom 140 78 5 0 0 0 - - -;
#X floatatom 469 442 5 0 0 0 - - -;
#X obj 1507 244 r vib;
#X obj 1307 213 r glide;
#X obj 1310 565 r voll;
#X obj -22 -321 r resetter;
#X obj -178 -265 bng 15 250 50 0 empty empty empty 17 7 0 10 -262144
-1 -1;
#X obj 1794 250 m_scale 0 75 11 0;
#X obj 700 445 vsl 15 128 0 127 0 0 empty empty empty 0 -9 0 10 -262144
-1 -1 0 1;
#X obj 702 414 r z;
#X obj 695 577 m_scale 0 127 0 400;
#N canvas 254 119 1920 808 harm 0;
#X floatatom 1051 299 0 0 0 0 - - -;
#X obj 1049 509 +~;
#X floatatom 1485 457 0 0 0 0 - - -;
#X obj 1339 700 line~;
#X obj 1337 660 \$1 \$1;
#X obj 1473 569 loadbang;
#X obj 1048 640 *~;
#X obj 1179 436 osc~ 5;
#X obj 1324 613 hsl 128 15 0 1 0 0 empty empty empty -2 -8 0 10 -262144
-1 -1 0 1;
#X obj 1487 313 vsl 15 128 0 11 0 0 empty empty empty 0 -9 0 10 -262144
-1 -1 4468 1;
#X text 1442 265 vibrato;
#X text 1385 570 volume;
#X obj 1049 236 mtof;
#X text 1204 238 glide;
#X obj 1049 434 line;
#X obj 1045 368 \$1 \$1;
#X msg 1177 349 \$1;
#X obj 1186 195 vsl 15 128 0 600 0 0 empty empty empty 0 -9 0 10 -262144
-1 -1 2961 1;
#X text 1207 211 0-600;
#X text 1511 315 0-11;
#X text 1373 542 0-1;
#X obj 1015 -117 sel 1 2 3 4 5 6 7 8 9 10 11 12 13 14 15 16 17 18 19
20 21 22 23 24 25 26 27 28 29 30 31 32 33 34 35 36 37 38 39 40 41;
#X text 689 -108 sequence of our notes;
#X obj 1693 455 r x;
#X obj 1698 523 m_scale 0 127 0 1;
#X floatatom 1697 590 5 0 0 0 - - -;
#X obj 1695 712 hsl 128 15 0 1 0 0 empty empty empty -2 -8 0 10 -262144
-1 -1 0 1;
#X floatatom 1693 734 5 0 0 0 - - -;
#X msg 1472 625 150;
#X obj 1810 21 r y;
#X floatatom 1810 325 5 0 0 0 - - -;
#X obj 1810 77 - 70;
#X obj 1809 128 vsl 15 128 0 57 0 0 empty empty empty 0 -9 0 10 -262144
-1 -1 0 1;
#X obj 1359 149 m_scale 0 127 0 600;
#X obj 1359 92 r z;
#X obj 1517 254 r vib;
#X obj 1317 223 r glide;
#X obj 1318 555 r voll;
#X obj 1804 260 m_scale 0 75 11 0;
#X obj 710 455 vsl 15 128 0 127 0 0 empty empty empty 0 -9 0 10 -262144
-1 -1 0 1;
#X obj 712 424 r z;
#X obj 705 587 m_scale 0 127 0 400;
#X obj 615 -95 inlet;
#X floatatom 903 271 5 0 0 0 - - -;
#X obj 1179 498 *~ 0.2;
#X obj 1633 92 mtof;
#X obj 1286 -325 sel 42 43 44 45 46 47 48 49 50 51 52 53 54 55 56 57
58 59 60 61 62 63 64 65 66 67 68;
#X msg 1819 -46 48;
#X msg 1853 -47 55;
#X msg 1890 -49 55;
#X msg 1936 -45 43;
#X msg 2009 -46 43;
#X msg 2041 -48 48;
#X obj 1683 643 - 0.05;
#X obj 1085 574 phasor~;
#X msg 1971 -46 43;
#X obj 381 510 outlet;
#X msg 1722 -94 55;
#X msg 1792 -94 57;
#X msg 1757 -94 60;
#X msg 1827 -94 55;
#X msg 1860 -94 53;
#X msg 1895 -94 53;
#X msg 1940 -95 53;
#X msg 1975 -95 57;
#X msg 2008 -95 58;
#X msg 2042 -96 55;
#X msg 1720 -72 57;
#X obj 1013 573 osc~;
#X obj 1329 635 * 0.4;
#X obj 983 615 *~ 0.4;
#X obj 1373 476 / 4;
#X obj 1078 687 lop~ 200;
#X obj 1208 641 r pass;
#X obj 1059 724 dac~;
#X msg 648 -44 43;
#X msg 740 -45 46;
#X msg 828 -49 51;
#X msg 928 -52 46;
#X msg 1011 -51 46;
#X msg 1099 -51 46;
#X obj 966 253 ftom;
#X msg 1183 -54 43;
#X msg 1269 -53 43;
#X msg 1363 -51 46;
#X msg 1454 -52 48;
#X msg 1543 -51 51;
#X msg 1631 -52 51;
#X msg 649 -12 46;
#X msg 735 -13 46;
#X msg 822 -13 46;
#X msg 909 -12 46;
#X msg 995 -12 51;
#X msg 1078 -12 51;
#X msg 1159 -10 51;
#X msg 1246 -10 51;
#X msg 1331 -11 46;
#X msg 1414 -8 43;
#X floatatom 882 228 5 0 0 0 - - -;
#X msg 1500 -7 46;
#X msg 731 28 46;
#X msg 834 28 44;
#X msg 923 28 43;
#X msg 996 30 46;
#X msg 647 58 46;
#X msg 734 64 51;
#X msg 832 62 51;
#X msg 923 63 51;
#X msg 994 66 51;
#X msg 645 93 46;
#X msg 733 97 46;
#X msg 912 98 46;
#X msg 824 98 43;
#X msg 995 101 43;
#X msg 1098 101 46;
#X msg 1155 117 46;
#X msg 1725 -123 43;
#X msg 1760 -123 46;
#X msg 1805 -124 46;
#X msg 1841 -124 43;
#X msg 1873 -124 46;
#X msg 1908 -124 43;
#X msg 1953 -125 46;
#X msg 1988 -125 45;
#X msg 2022 -125 43;
#X obj 806 253 + 12;
#X obj 806 233 ftom;
#X obj 805 285 mtof;
#X obj 1620 149 + 12;
#X obj 1620 129 ftom;
#X obj 1619 181 mtof;
#X floatatom 1687 170 5 0 0 0 - - -;
#X msg 648 24 43;
#X msg 1047 101 44;
#X connect 0 0 15 0;
#X connect 1 0 54 0;
#X connect 1 0 68 0;
#X connect 2 0 71 0;
#X connect 3 0 6 1;
#X connect 4 0 3 0;
#X connect 5 0 28 0;
#X connect 6 0 72 0;
#X connect 7 0 44 0;
#X connect 8 0 69 0;
#X connect 9 0 2 0;
#X connect 12 0 56 0;
#X connect 12 0 81 0;
#X connect 12 0 126 0;
#X connect 14 0 1 0;
#X connect 15 0 14 0;
#X connect 16 0 15 1;
#X connect 17 0 16 0;
#X connect 21 0 75 0;
#X connect 21 1 76 0;
#X connect 21 2 77 0;
#X connect 21 3 78 0;
#X connect 21 4 79 0;
#X connect 21 5 80 0;
#X connect 21 6 82 0;
#X connect 21 7 83 0;
#X connect 21 8 84 0;
#X connect 21 9 85 0;
#X connect 21 10 86 0;
#X connect 21 11 87 0;
#X connect 21 12 88 0;
#X connect 21 13 89 0;
#X connect 21 14 90 0;
#X connect 21 15 91 0;
#X connect 21 16 92 0;
#X connect 21 17 93 0;
#X connect 21 18 94 0;
#X connect 21 19 95 0;
#X connect 21 20 96 0;
#X connect 21 21 97 0;
#X connect 21 22 99 0;
#X connect 21 23 132 0;
#X connect 21 24 100 0;
#X connect 21 25 101 0;
#X connect 21 26 102 0;
#X connect 21 27 103 0;
#X connect 21 28 104 0;
#X connect 21 29 105 0;
#X connect 21 30 106 0;
#X connect 21 31 107 0;
#X connect 21 32 108 0;
#X connect 21 33 109 0;
#X connect 21 34 110 0;
#X connect 21 35 112 0;
#X connect 21 36 111 0;
#X connect 21 37 113 0;
#X connect 21 38 133 0;
#X connect 21 39 114 0;
#X connect 21 40 115 0;
#X connect 23 0 24 0;
#X connect 24 0 25 0;
#X connect 25 0 53 0;
#X connect 26 0 27 0;
#X connect 26 0 8 0;
#X connect 28 0 4 1;
#X connect 29 0 31 0;
#X connect 31 0 32 0;
#X connect 32 0 38 0;
#X connect 34 0 33 0;
#X connect 35 0 9 0;
#X connect 36 0 17 0;
#X connect 37 0 8 0;
#X connect 38 0 30 0;
#X connect 38 0 9 0;
#X connect 39 0 41 0;
#X connect 40 0 39 0;
#X connect 41 0 17 0;
#X connect 42 0 21 0;
#X connect 42 0 46 0;
#X connect 44 0 1 1;
#X connect 45 0 129 0;
#X connect 46 0 116 0;
#X connect 46 1 117 0;
#X connect 46 2 118 0;
#X connect 46 3 119 0;
#X connect 46 4 120 0;
#X connect 46 5 121 0;
#X connect 46 6 122 0;
#X connect 46 7 123 0;
#X connect 46 8 124 0;
#X connect 46 9 57 0;
#X connect 46 10 59 0;
#X connect 46 11 58 0;
#X connect 46 12 60 0;
#X connect 46 13 61 0;
#X connect 46 14 62 0;
#X connect 46 15 63 0;
#X connect 46 16 64 0;
#X connect 46 17 65 0;
#X connect 46 18 66 0;
#X connect 46 19 67 0;
#X connect 46 20 47 0;
#X connect 46 21 48 0;
#X connect 46 22 49 0;
#X connect 46 23 50 0;
#X connect 46 24 55 0;
#X connect 46 25 51 0;
#X connect 46 26 52 0;
#X connect 47 0 45 0;
#X connect 48 0 45 0;
#X connect 49 0 45 0;
#X connect 50 0 45 0;
#X connect 51 0 45 0;
#X connect 52 0 45 0;
#X connect 53 0 26 0;
#X connect 54 0 6 0;
#X connect 55 0 45 0;
#X connect 57 0 45 0;
#X connect 58 0 45 0;
#X connect 59 0 45 0;
#X connect 60 0 45 0;
#X connect 61 0 45 0;
#X connect 62 0 45 0;
#X connect 63 0 45 0;
#X connect 64 0 45 0;
#X connect 65 0 45 0;
#X connect 66 0 45 0;
#X connect 67 0 45 0;
#X connect 69 0 4 0;
#X connect 70 0 6 0;
#X connect 71 0 44 1;
#X connect 72 0 74 1;
#X connect 73 0 72 1;
#X connect 75 0 12 0;
#X connect 76 0 12 0;
#X connect 77 0 12 0;
#X connect 78 0 12 0;
#X connect 79 0 12 0;
#X connect 80 0 12 0;
#X connect 81 0 43 0;
#X connect 82 0 12 0;
#X connect 83 0 12 0;
#X connect 84 0 12 0;
#X connect 85 0 12 0;
#X connect 86 0 12 0;
#X connect 87 0 12 0;
#X connect 88 0 12 0;
#X connect 89 0 12 0;
#X connect 90 0 12 0;
#X connect 91 0 12 0;
#X connect 92 0 12 0;
#X connect 93 0 12 0;
#X connect 94 0 12 0;
#X connect 95 0 12 0;
#X connect 96 0 12 0;
#X connect 97 0 12 0;
#X connect 98 0 81 0;
#X connect 99 0 12 0;
#X connect 100 0 12 0;
#X connect 101 0 12 0;
#X connect 102 0 12 0;
#X connect 103 0 12 0;
#X connect 104 0 12 0;
#X connect 105 0 12 0;
#X connect 106 0 12 0;
#X connect 107 0 12 0;
#X connect 108 0 12 0;
#X connect 109 0 12 0;
#X connect 110 0 12 0;
#X connect 111 0 12 0;
#X connect 112 0 12 0;
#X connect 113 0 12 0;
#X connect 114 0 12 0;
#X connect 115 0 12 0;
#X connect 116 0 45 0;
#X connect 117 0 45 0;
#X connect 118 0 45 0;
#X connect 119 0 45 0;
#X connect 120 0 45 0;
#X connect 121 0 45 0;
#X connect 122 0 45 0;
#X connect 123 0 45 0;
#X connect 124 0 45 0;
#X connect 125 0 127 0;
#X connect 126 0 125 0;
#X connect 127 0 0 0;
#X connect 128 0 130 0;
#X connect 129 0 128 0;
#X connect 129 0 131 0;
#X connect 130 0 0 0;
#X connect 132 0 12 0;
#X connect 133 0 12 0;
#X restore -267 -194 pd harm;
#X obj 75 169 s n;
#X obj 63 132 ftom;
#X obj -251 546 osc~;
#X obj 1039 563 osc~;
#X obj 1090 556 phasor~;
#X obj -159 566 phasor~;
#X obj 280 -261 clock;
#X msg 71 -233 0;
#X msg 2291 -43 67;
#X obj -529 547 makenote 64 127;
#X obj -529 580 noteout 1;
#X obj -704 212 makenote 64 127;
#X obj -704 245 noteout 3;
#X obj -554 239 makenote 64 127;
#X obj -554 272 noteout 2;
#X obj -641 159 ftom;
#X obj -695 163 ftom;
#X obj 17 364 * 100;
#X obj -57 583 * 64;
#X msg -423 -249 \; pd dsp 1;
#X msg -676 473 64;
#X msg -641 473 64;
#X msg -606 473 65;
#X msg -571 473 67;
#X msg -538 473 65;
#X msg -503 473 67;
#X msg -458 472 69;
#X msg -423 472 65;
#X msg -390 472 67;
#X msg -356 471 64;
#X msg -678 495 65;
#X msg 2052 -102 60;
#X msg 2087 -102 60;
#X msg 2122 -102 60;
#X msg 2157 -102 60;
#X msg 2190 -102 57;
#X msg 2225 -102 58;
#X msg 2270 -103 60;
#X msg 2305 -103 60;
#X msg 2338 -103 60;
#X msg 2372 -104 60;
#X msg 2050 -80 60;
#N canvas 268 144 1674 774 harm2 0;
#X floatatom 1061 309 0 0 0 0 - - -;
#X obj 1059 519 +~;
#X floatatom 1495 467 0 0 0 0 - - -;
#X obj 1349 710 line~;
#X obj 1347 670 \$1 \$1;
#X obj 1483 579 loadbang;
#X obj 1058 650 *~;
#X obj 1189 446 osc~ 5;
#X obj 1334 623 hsl 128 15 0 1 0 0 empty empty empty -2 -8 0 10 -262144
-1 -1 0 1;
#X obj 1497 323 vsl 15 128 0 11 0 0 empty empty empty 0 -9 0 10 -262144
-1 -1 4468 1;
#X text 1452 275 vibrato;
#X text 1395 580 volume;
#X obj 1059 246 mtof;
#X text 1214 248 glide;
#X obj 1059 444 line;
#X obj 1055 378 \$1 \$1;
#X msg 1187 359 \$1;
#X obj 1196 205 vsl 15 128 0 600 0 0 empty empty empty 0 -9 0 10 -262144
-1 -1 2961 1;
#X text 1217 221 0-600;
#X text 1521 325 0-11;
#X text 1383 552 0-1;
#X obj 1025 -107 sel 1 2 3 4 5 6 7 8 9 10 11 12 13 14 15 16 17 18 19
20 21 22 23 24 25 26 27 28 29 30 31 32 33 34 35 36 37 38 39 40 41;
#X text 699 -98 sequence of our notes;
#X obj 1703 465 r x;
#X obj 1708 533 m_scale 0 127 0 1;
#X floatatom 1707 600 5 0 0 0 - - -;
#X obj 1705 722 hsl 128 15 0 1 0 0 empty empty empty -2 -8 0 10 -262144
-1 -1 0 1;
#X floatatom 1703 744 5 0 0 0 - - -;
#X msg 1482 635 150;
#X obj 1820 31 r y;
#X floatatom 1820 335 5 0 0 0 - - -;
#X obj 1820 87 - 70;
#X obj 1819 138 vsl 15 128 0 57 0 0 empty empty empty 0 -9 0 10 -262144
-1 -1 0 1;
#X obj 1369 159 m_scale 0 127 0 600;
#X obj 1369 102 r z;
#X obj 1527 264 r vib;
#X obj 1327 233 r glide;
#X obj 1328 565 r voll;
#X obj 1814 270 m_scale 0 75 11 0;
#X obj 720 465 vsl 15 128 0 127 0 0 empty empty empty 0 -9 0 10 -262144
-1 -1 0 1;
#X obj 722 434 r z;
#X obj 715 597 m_scale 0 127 0 400;
#X obj 625 -85 inlet;
#X floatatom 940 300 5 0 0 0 - - -;
#X obj 1189 508 *~ 0.2;
#X obj 1643 102 mtof;
#X obj 1296 -315 sel 42 43 44 45 46 47 48 49 50 51 52 53 54 55 56 57
58 59 60 61 62 63 64 65 66 67 68;
#X msg 1829 -36 48;
#X msg 1863 -37 55;
#X msg 1900 -39 55;
#X msg 1946 -35 43;
#X msg 2019 -36 43;
#X msg 2051 -38 48;
#X obj 1693 653 - 0.05;
#X obj 1121 592 phasor~;
#X msg 1981 -36 43;
#X obj 391 520 outlet;
#X obj 1339 645 * 0.8;
#X floatatom 591 -37 5 0 0 0 - - -;
#X floatatom 883 267 5 0 0 0 - - -;
#X obj 1011 295 ftom;
#X floatatom 1019 320 5 0 0 0 - - -;
#X msg 1732 -84 48;
#X msg 1767 -84 48;
#X msg 1802 -84 53;
#X msg 1836 -84 52;
#X msg 1870 -84 50;
#X msg 1905 -84 49;
#X msg 1950 -85 48;
#X msg 1985 -85 48;
#X msg 2018 -85 48;
#X msg 2052 -86 48;
#X msg 1730 -62 41;
#X obj 993 602 osc~;
#X obj 1383 486 / 4;
#X obj 1162 705 lop~ 200;
#X obj 1220 637 r pass;
#X msg 658 -34 43;
#X msg 750 -35 39;
#X msg 838 -38 39;
#X msg 938 -42 39;
#X msg 1021 -41 39;
#X msg 1109 -41 39;
#X msg 1193 -44 39;
#X msg 1279 -43 39;
#X obj 1100 746 dac~;
#X msg 1373 -41 34;
#X msg 1464 -42 34;
#X msg 1553 -41 39;
#X msg 1641 -42 39;
#X msg 659 -2 39;
#X msg 745 -3 39;
#X msg 832 -3 39;
#X msg 919 -2 39;
#X msg 1005 -2 39;
#X msg 1088 -2 39;
#X msg 1169 0 39;
#X msg 1256 0 39;
#X msg 1341 -1 39;
#X msg 1424 2 39;
#X msg 658 34 34;
#X msg 741 38 34;
#X msg 844 38 34;
#X msg 1014 42 39;
#X msg 1510 3 34;
#X msg 932 38 39;
#X msg 656 68 39;
#X msg 744 74 39;
#X msg 842 72 39;
#X msg 933 73 39;
#X msg 1004 76 39;
#X msg 654 103 39;
#X msg 743 107 34;
#X msg 834 108 34;
#X msg 922 108 34;
#X msg 1005 111 39;
#X msg 1057 111 39;
#X msg 1108 111 39;
#X msg 1165 127 39;
#X msg 1735 -113 39;
#X msg 1770 -113 39;
#X msg 1815 -114 39;
#X msg 1851 -114 39;
#X floatatom 1643 140 5 0 0 0 - - -;
#X obj 1716 115 ftom;
#X msg 1883 -114 34;
#X msg 1918 -114 34;
#X msg 1963 -115 34;
#X msg 1998 -115 34;
#X msg 2032 -115 39;
#X obj 826 253 ftom;
#X obj 825 305 mtof;
#X obj 1571 160 ftom;
#X obj 1570 212 mtof;
#X obj 826 273 + 0;
#X obj 1571 180 + 0;
#X connect 0 0 15 0;
#X connect 1 0 54 0;
#X connect 2 0 74 0;
#X connect 3 0 6 1;
#X connect 4 0 3 0;
#X connect 5 0 28 0;
#X connect 6 0 75 0;
#X connect 7 0 44 0;
#X connect 8 0 57 0;
#X connect 9 0 2 0;
#X connect 12 0 56 0;
#X connect 12 0 59 0;
#X connect 12 0 60 0;
#X connect 12 0 130 0;
#X connect 14 0 1 0;
#X connect 15 0 14 0;
#X connect 16 0 15 1;
#X connect 17 0 16 0;
#X connect 21 0 77 0;
#X connect 21 1 78 0;
#X connect 21 2 79 0;
#X connect 21 3 80 0;
#X connect 21 4 81 0;
#X connect 21 5 82 0;
#X connect 21 6 83 0;
#X connect 21 7 84 0;
#X connect 21 8 86 0;
#X connect 21 9 87 0;
#X connect 21 10 88 0;
#X connect 21 11 89 0;
#X connect 21 12 90 0;
#X connect 21 13 91 0;
#X connect 21 14 92 0;
#X connect 21 15 93 0;
#X connect 21 16 94 0;
#X connect 21 17 95 0;
#X connect 21 18 96 0;
#X connect 21 19 97 0;
#X connect 21 20 98 0;
#X connect 21 21 99 0;
#X connect 21 22 104 0;
#X connect 21 23 100 0;
#X connect 21 24 101 0;
#X connect 21 25 102 0;
#X connect 21 26 105 0;
#X connect 21 27 103 0;
#X connect 21 28 106 0;
#X connect 21 29 107 0;
#X connect 21 30 108 0;
#X connect 21 31 109 0;
#X connect 21 32 110 0;
#X connect 21 33 111 0;
#X connect 21 34 112 0;
#X connect 21 35 113 0;
#X connect 21 36 114 0;
#X connect 21 37 115 0;
#X connect 21 38 116 0;
#X connect 21 39 117 0;
#X connect 21 40 118 0;
#X connect 23 0 24 0;
#X connect 24 0 25 0;
#X connect 25 0 53 0;
#X connect 26 0 27 0;
#X connect 26 0 8 0;
#X connect 28 0 4 1;
#X connect 29 0 31 0;
#X connect 31 0 32 0;
#X connect 32 0 38 0;
#X connect 34 0 33 0;
#X connect 35 0 9 0;
#X connect 36 0 17 0;
#X connect 37 0 8 0;
#X connect 38 0 30 0;
#X connect 38 0 9 0;
#X connect 39 0 41 0;
#X connect 40 0 39 0;
#X connect 41 0 17 0;
#X connect 42 0 21 0;
#X connect 42 0 46 0;
#X connect 42 0 58 0;
#X connect 43 0 12 0;
#X connect 44 0 1 1;
#X connect 45 0 124 0;
#X connect 45 0 132 0;
#X connect 46 0 119 0;
#X connect 46 1 120 0;
#X connect 46 2 121 0;
#X connect 46 3 122 0;
#X connect 46 4 125 0;
#X connect 46 5 126 0;
#X connect 46 6 127 0;
#X connect 46 7 128 0;
#X connect 46 8 129 0;
#X connect 46 9 62 0;
#X connect 46 10 63 0;
#X connect 46 11 64 0;
#X connect 46 12 65 0;
#X connect 46 13 66 0;
#X connect 46 14 67 0;
#X connect 46 15 68 0;
#X connect 46 16 69 0;
#X connect 46 17 70 0;
#X connect 46 18 71 0;
#X connect 46 19 72 0;
#X connect 46 20 47 0;
#X connect 46 21 48 0;
#X connect 46 22 49 0;
#X connect 46 23 50 0;
#X connect 46 24 55 0;
#X connect 46 25 51 0;
#X connect 46 26 52 0;
#X connect 47 0 45 0;
#X connect 48 0 45 0;
#X connect 49 0 45 0;
#X connect 50 0 45 0;
#X connect 51 0 45 0;
#X connect 52 0 45 0;
#X connect 53 0 26 0;
#X connect 54 0 6 0;
#X connect 55 0 45 0;
#X connect 57 0 4 0;
#X connect 60 0 61 0;
#X connect 62 0 45 0;
#X connect 63 0 45 0;
#X connect 64 0 45 0;
#X connect 65 0 45 0;
#X connect 66 0 45 0;
#X connect 67 0 45 0;
#X connect 68 0 45 0;
#X connect 69 0 45 0;
#X connect 70 0 45 0;
#X connect 71 0 45 0;
#X connect 72 0 45 0;
#X connect 73 0 6 0;
#X connect 74 0 44 1;
#X connect 75 0 85 0;
#X connect 76 0 75 1;
#X connect 77 0 12 0;
#X connect 78 0 12 0;
#X connect 79 0 12 0;
#X connect 80 0 12 0;
#X connect 81 0 12 0;
#X connect 82 0 12 0;
#X connect 83 0 12 0;
#X connect 84 0 12 0;
#X connect 86 0 12 0;
#X connect 87 0 12 0;
#X connect 88 0 12 0;
#X connect 89 0 12 0;
#X connect 90 0 12 0;
#X connect 91 0 12 0;
#X connect 92 0 12 0;
#X connect 93 0 12 0;
#X connect 94 0 12 0;
#X connect 95 0 12 0;
#X connect 96 0 12 0;
#X connect 97 0 12 0;
#X connect 98 0 12 0;
#X connect 99 0 12 0;
#X connect 100 0 12 0;
#X connect 101 0 12 0;
#X connect 102 0 12 0;
#X connect 103 0 12 0;
#X connect 104 0 12 0;
#X connect 105 0 12 0;
#X connect 106 0 12 0;
#X connect 107 0 12 0;
#X connect 108 0 12 0;
#X connect 109 0 12 0;
#X connect 110 0 12 0;
#X connect 111 0 12 0;
#X connect 112 0 12 0;
#X connect 113 0 12 0;
#X connect 114 0 12 0;
#X connect 115 0 12 0;
#X connect 116 0 12 0;
#X connect 117 0 12 0;
#X connect 118 0 12 0;
#X connect 119 0 45 0;
#X connect 120 0 45 0;
#X connect 121 0 45 0;
#X connect 122 0 45 0;
#X connect 124 0 123 0;
#X connect 125 0 45 0;
#X connect 126 0 45 0;
#X connect 127 0 45 0;
#X connect 128 0 45 0;
#X connect 129 0 45 0;
#X connect 130 0 134 0;
#X connect 131 0 0 0;
#X connect 132 0 135 0;
#X connect 133 0 0 0;
#X connect 134 0 131 0;
#X connect 135 0 133 0;
#X restore -371 -171 pd harm2;
#X obj 1172 715 lop~ 200;
#X obj 262 638 lop~ 200;
#X obj 941 605 r pass;
#X obj 650 -285 s pass;
#X floatatom 645 -314 5 0 0 0 - - -;
#X floatatom 1264 582 5 0 0 0 - - -;
#X obj 636 -164 r voll;
#X obj 1319 625 * 0.6;
#X obj 578 -126 * 200;
#X msg -652 -71 51;
#X msg -560 -72 55;
#X msg -472 -76 58;
#X msg -372 -78 55;
#X msg -289 -78 53;
#X msg -201 -78 51;
#X msg -117 -81 51;
#X msg -30 -79 51;
#X msg 63 -78 53;
#X floatatom -382 184 5 0 0 0 - - -;
#X msg 154 -79 56;
#X msg 243 -78 60;
#X msg 331 -79 58;
#X msg -651 -39 55;
#X msg -565 -40 58;
#X msg -478 -40 63;
#X msg -391 -39 62;
#X msg -222 -39 58;
#X msg -141 -37 60;
#X msg -54 -37 58;
#X msg 31 -38 55;
#X msg 114 -35 51;
#X msg 200 -34 53;
#X msg -652 -3 51;
#X msg -569 1 55;
#X msg -379 1 51;
#X msg -466 1 53;
#X msg -304 3 63;
#X msg -654 31 62;
#X msg -566 37 60;
#X msg -468 35 58;
#X msg -377 36 60;
#X msg -306 39 58;
#X msg -655 66 55;
#X msg -476 71 51;
#X msg -567 69 53;
#X msg -388 71 53;
#X msg -305 74 58;
#X msg -253 74 60;
#X msg -202 74 58;
#X msg -156 75 55;
#X msg -673 445 51;
#X msg -638 444 53;
#X msg -593 443 55;
#X msg -558 443 51;
#X msg -525 443 53;
#X msg -490 443 51;
#X msg -445 442 55;
#X msg -410 442 53;
#X msg -377 442 51;
#X msg 638 -54 51;
#X msg 730 -55 51;
#X msg 818 -59 55;
#X msg 918 -58 51;
#X obj 1030 704 dac~;
#X msg 1001 -61 50;
#X msg 1089 -61 51;
#X msg 1173 -64 51;
#X msg 1259 -63 51;
#X msg 1353 -61 50;
#X msg 1444 -62 53;
#X msg 1533 -61 56;
#X msg 1621 -62 55;
#X msg 639 -21 51;
#X msg 725 -23 55;
#X msg 812 -23 55;
#X msg 899 -22 58;
#X msg 985 -22 56;
#X msg 1068 -22 55;
#X msg 1149 -20 56;
#X msg 1236 -20 55;
#X msg 1321 -21 51;
#X msg 1404 -18 51;
#X msg 1490 -17 50;
#X msg 638 14 46;
#X msg 721 18 51;
#X msg 824 18 50;
#X msg 911 18 51;
#X msg 986 20 55;
#X msg 636 48 55;
#X msg 724 54 56;
#X msg 822 52 55;
#X msg 913 53 56;
#X msg 984 56 55;
#X msg 635 83 51;
#X msg 723 86 50;
#X msg 814 88 51;
#X msg 902 88 50;
#X msg 985 126 51;
#X msg 1037 91 51;
#X msg 1088 91 51;
#X msg 1133 92 50;
#X msg 1715 -133 51;
#X msg 1750 -133 50;
#X msg 1795 -134 51;
#X msg 1830 -134 51;
#X msg 1863 -134 50;
#X msg 1898 -135 46;
#X msg 1943 -135 51;
#X msg 1978 -135 50;
#X msg 2011 -135 51;
#X obj 664 214 + 12;
#X obj 664 194 ftom;
#X obj 663 246 mtof;
#X obj -178 217 ftom;
#X obj -179 269 mtof;
#X obj -178 237 + 0;
#X msg 227 -225 28;
#X obj 158 -198 sel 51;
#X obj 582 671 rev3~ 95 90 3000 20;
#X connect 0 0 2 1;
#X connect 1 0 17 0;
#X connect 2 0 112 0;
#X connect 3 0 0 1;
#X connect 4 0 8 1;
#X connect 5 0 4 0;
#X connect 6 0 33 0;
#X connect 8 0 151 0;
#X connect 9 0 0 0;
#X connect 10 0 5 0;
#X connect 10 0 125 0;
#X connect 11 0 3 0;
#X connect 11 0 124 0;
#X connect 14 0 122 0;
#X connect 14 0 263 0;
#X connect 16 0 2 0;
#X connect 16 0 108 0;
#X connect 16 0 107 0;
#X connect 17 0 16 0;
#X connect 18 0 17 1;
#X connect 19 0 18 0;
#X connect 21 0 23 0;
#X connect 22 0 21 0;
#X connect 23 0 30 0;
#X connect 23 0 58 0;
#X connect 23 0 75 0;
#X connect 23 0 84 0;
#X connect 23 0 106 0;
#X connect 23 0 149 0;
#X connect 23 0 267 0;
#X connect 24 0 126 0;
#X connect 24 0 114 0;
#X connect 29 0 14 0;
#X connect 30 0 159 0;
#X connect 30 1 160 0;
#X connect 30 2 161 0;
#X connect 30 3 162 0;
#X connect 30 4 163 0;
#X connect 30 5 164 0;
#X connect 30 6 165 0;
#X connect 30 7 166 0;
#X connect 30 8 167 0;
#X connect 30 9 169 0;
#X connect 30 10 170 0;
#X connect 30 11 171 0;
#X connect 30 12 172 0;
#X connect 30 13 173 0;
#X connect 30 14 174 0;
#X connect 30 15 175 0;
#X connect 30 16 29 0;
#X connect 30 17 176 0;
#X connect 30 18 177 0;
#X connect 30 19 178 0;
#X connect 30 20 179 0;
#X connect 30 21 180 0;
#X connect 30 22 181 0;
#X connect 30 23 182 0;
#X connect 30 24 183 0;
#X connect 30 25 185 0;
#X connect 30 26 184 0;
#X connect 30 27 186 0;
#X connect 30 28 187 0;
#X connect 30 29 188 0;
#X connect 30 30 189 0;
#X connect 30 31 190 0;
#X connect 30 32 191 0;
#X connect 30 33 192 0;
#X connect 30 34 194 0;
#X connect 30 35 193 0;
#X connect 30 36 195 0;
#X connect 30 37 196 0;
#X connect 30 38 197 0;
#X connect 30 39 198 0;
#X connect 30 40 199 0;
#X connect 33 0 5 1;
#X connect 35 0 22 0;
#X connect 36 0 38 1;
#X connect 37 0 52 0;
#X connect 38 0 111 0;
#X connect 39 0 36 1;
#X connect 40 0 43 1;
#X connect 41 0 40 0;
#X connect 42 0 66 0;
#X connect 43 0 150 0;
#X connect 44 0 36 0;
#X connect 45 0 157 0;
#X connect 46 0 39 0;
#X connect 49 0 120 0;
#X connect 49 0 261 0;
#X connect 51 0 38 0;
#X connect 52 0 51 0;
#X connect 53 0 52 1;
#X connect 54 0 53 0;
#X connect 58 0 209 0;
#X connect 58 1 210 0;
#X connect 58 2 211 0;
#X connect 58 3 212 0;
#X connect 58 4 214 0;
#X connect 58 5 215 0;
#X connect 58 6 216 0;
#X connect 58 7 217 0;
#X connect 58 8 218 0;
#X connect 58 9 219 0;
#X connect 58 10 220 0;
#X connect 58 11 221 0;
#X connect 58 12 222 0;
#X connect 58 13 223 0;
#X connect 58 14 224 0;
#X connect 58 15 225 0;
#X connect 58 16 226 0;
#X connect 58 17 227 0;
#X connect 58 18 228 0;
#X connect 58 19 229 0;
#X connect 58 20 230 0;
#X connect 58 21 231 0;
#X connect 58 22 232 0;
#X connect 58 23 233 0;
#X connect 58 24 234 0;
#X connect 58 25 235 0;
#X connect 58 26 236 0;
#X connect 58 27 237 0;
#X connect 58 28 238 0;
#X connect 58 29 239 0;
#X connect 58 30 240 0;
#X connect 58 31 241 0;
#X connect 58 32 242 0;
#X connect 58 33 243 0;
#X connect 58 34 244 0;
#X connect 58 35 245 0;
#X connect 58 36 246 0;
#X connect 58 37 247 0;
#X connect 58 38 248 0;
#X connect 58 39 249 0;
#X connect 58 40 250 0;
#X connect 60 0 61 0;
#X connect 61 0 62 0;
#X connect 62 0 63 0;
#X connect 63 0 64 0;
#X connect 64 0 65 0;
#X connect 64 0 45 0;
#X connect 64 0 10 0;
#X connect 66 0 41 1;
#X connect 67 0 69 0;
#X connect 69 0 70 0;
#X connect 70 0 102 0;
#X connect 72 0 71 0;
#X connect 75 0 200 0;
#X connect 75 1 201 0;
#X connect 75 2 202 0;
#X connect 75 3 203 0;
#X connect 75 4 204 0;
#X connect 75 5 205 0;
#X connect 75 6 206 0;
#X connect 75 7 207 0;
#X connect 75 8 208 0;
#X connect 75 9 127 0;
#X connect 75 10 128 0;
#X connect 75 11 129 0;
#X connect 75 12 130 0;
#X connect 75 13 131 0;
#X connect 75 14 132 0;
#X connect 75 15 133 0;
#X connect 75 16 134 0;
#X connect 75 17 135 0;
#X connect 75 18 136 0;
#X connect 75 19 137 0;
#X connect 75 20 77 0;
#X connect 75 21 78 0;
#X connect 75 22 79 0;
#X connect 75 23 80 0;
#X connect 75 24 81 0;
#X connect 75 25 82 0;
#X connect 75 26 83 0;
#X connect 76 0 14 0;
#X connect 77 0 14 0;
#X connect 78 0 14 0;
#X connect 79 0 14 0;
#X connect 80 0 14 0;
#X connect 81 0 14 0;
#X connect 82 0 14 0;
#X connect 83 0 14 0;
#X connect 84 0 251 0;
#X connect 84 1 252 0;
#X connect 84 2 253 0;
#X connect 84 3 254 0;
#X connect 84 4 255 0;
#X connect 84 5 256 0;
#X connect 84 6 257 0;
#X connect 84 7 258 0;
#X connect 84 8 259 0;
#X connect 84 9 138 0;
#X connect 84 10 139 0;
#X connect 84 11 140 0;
#X connect 84 12 141 0;
#X connect 84 13 142 0;
#X connect 84 14 143 0;
#X connect 84 15 144 0;
#X connect 84 16 145 0;
#X connect 84 17 146 0;
#X connect 84 18 147 0;
#X connect 84 19 148 0;
#X connect 84 20 85 0;
#X connect 84 21 86 0;
#X connect 84 22 87 0;
#X connect 84 23 88 0;
#X connect 84 24 115 0;
#X connect 84 25 89 0;
#X connect 84 26 90 0;
#X connect 85 0 49 0;
#X connect 86 0 49 0;
#X connect 87 0 49 0;
#X connect 88 0 49 0;
#X connect 89 0 49 0;
#X connect 90 0 49 0;
#X connect 92 0 95 0;
#X connect 92 0 19 0;
#X connect 93 0 34 0;
#X connect 93 0 11 0;
#X connect 94 0 96 0;
#X connect 94 0 10 0;
#X connect 97 0 46 0;
#X connect 98 0 54 0;
#X connect 99 0 45 0;
#X connect 99 0 155 0;
#X connect 100 0 24 0;
#X connect 101 0 21 0;
#X connect 102 0 68 0;
#X connect 102 0 46 0;
#X connect 102 0 11 0;
#X connect 103 0 105 0;
#X connect 104 0 103 0;
#X connect 105 0 54 0;
#X connect 105 0 19 0;
#X connect 106 0 123 0;
#X connect 109 0 8 0;
#X connect 110 0 43 0;
#X connect 111 0 43 0;
#X connect 112 0 8 0;
#X connect 114 0 21 3;
#X connect 115 0 49 0;
#X connect 116 0 117 0;
#X connect 116 1 117 1;
#X connect 118 0 119 0;
#X connect 118 1 119 1;
#X connect 120 0 121 0;
#X connect 120 1 121 1;
#X connect 122 0 116 0;
#X connect 123 0 118 0;
#X connect 124 0 120 2;
#X connect 124 0 118 2;
#X connect 124 0 116 2;
#X connect 125 0 120 1;
#X connect 125 0 118 1;
#X connect 125 0 116 1;
#X connect 127 0 14 0;
#X connect 128 0 14 0;
#X connect 129 0 14 0;
#X connect 130 0 14 0;
#X connect 131 0 14 0;
#X connect 132 0 14 0;
#X connect 133 0 14 0;
#X connect 134 0 14 0;
#X connect 135 0 14 0;
#X connect 136 0 14 0;
#X connect 137 0 14 0;
#X connect 138 0 49 0;
#X connect 139 0 49 0;
#X connect 140 0 49 0;
#X connect 141 0 49 0;
#X connect 142 0 49 0;
#X connect 143 0 49 0;
#X connect 144 0 49 0;
#X connect 145 0 49 0;
#X connect 146 0 49 0;
#X connect 147 0 49 0;
#X connect 148 0 49 0;
#X connect 150 0 213 0;
#X connect 150 0 213 1;
#X connect 150 0 268 1;
#X connect 151 0 7 0;
#X connect 151 0 7 1;
#X connect 151 0 268 0;
#X connect 152 0 150 1;
#X connect 152 0 151 1;
#X connect 154 0 153 0;
#X connect 156 0 158 0;
#X connect 157 0 41 0;
#X connect 158 0 154 0;
#X connect 159 0 14 0;
#X connect 160 0 14 0;
#X connect 161 0 14 0;
#X connect 162 0 14 0;
#X connect 163 0 14 0;
#X connect 164 0 14 0;
#X connect 165 0 14 0;
#X connect 166 0 14 0;
#X connect 167 0 14 0;
#X connect 168 0 14 0;
#X connect 169 0 14 0;
#X connect 170 0 14 0;
#X connect 171 0 14 0;
#X connect 172 0 14 0;
#X connect 173 0 14 0;
#X connect 174 0 14 0;
#X connect 175 0 14 0;
#X connect 176 0 14 0;
#X connect 177 0 14 0;
#X connect 178 0 14 0;
#X connect 179 0 14 0;
#X connect 180 0 14 0;
#X connect 181 0 14 0;
#X connect 182 0 14 0;
#X connect 183 0 14 0;
#X connect 184 0 14 0;
#X connect 185 0 14 0;
#X connect 186 0 14 0;
#X connect 187 0 14 0;
#X connect 188 0 14 0;
#X connect 189 0 14 0;
#X connect 190 0 14 0;
#X connect 191 0 14 0;
#X connect 192 0 14 0;
#X connect 193 0 14 0;
#X connect 194 0 14 0;
#X connect 195 0 14 0;
#X connect 196 0 14 0;
#X connect 197 0 14 0;
#X connect 198 0 14 0;
#X connect 199 0 14 0;
#X connect 200 0 14 0;
#X connect 201 0 14 0;
#X connect 202 0 14 0;
#X connect 203 0 14 0;
#X connect 204 0 14 0;
#X connect 205 0 14 0;
#X connect 206 0 14 0;
#X connect 207 0 14 0;
#X connect 208 0 14 0;
#X connect 209 0 49 0;
#X connect 210 0 49 0;
#X connect 211 0 49 0;
#X connect 212 0 49 0;
#X connect 214 0 49 0;
#X connect 215 0 49 0;
#X connect 216 0 49 0;
#X connect 217 0 49 0;
#X connect 218 0 49 0;
#X connect 219 0 49 0;
#X connect 220 0 49 0;
#X connect 221 0 49 0;
#X connect 222 0 49 0;
#X connect 223 0 49 0;
#X connect 224 0 49 0;
#X connect 225 0 49 0;
#X connect 226 0 49 0;
#X connect 227 0 49 0;
#X connect 228 0 49 0;
#X connect 229 0 49 0;
#X connect 230 0 49 0;
#X connect 231 0 49 0;
#X connect 232 0 49 0;
#X connect 233 0 49 0;
#X connect 234 0 49 0;
#X connect 235 0 49 0;
#X connect 236 0 49 0;
#X connect 237 0 49 0;
#X connect 238 0 49 0;
#X connect 239 0 49 0;
#X connect 240 0 49 0;
#X connect 241 0 49 0;
#X connect 242 0 49 0;
#X connect 243 0 49 0;
#X connect 244 0 49 0;
#X connect 245 0 49 0;
#X connect 246 0 49 0;
#X connect 247 0 49 0;
#X connect 248 0 49 0;
#X connect 249 0 49 0;
#X connect 250 0 49 0;
#X connect 251 0 49 0;
#X connect 252 0 49 0;
#X connect 253 0 49 0;
#X connect 254 0 49 0;
#X connect 255 0 49 0;
#X connect 256 0 49 0;
#X connect 257 0 49 0;
#X connect 258 0 49 0;
#X connect 259 0 49 0;
#X connect 260 0 262 0;
#X connect 261 0 260 0;
#X connect 262 0 37 0;
#X connect 263 0 265 0;
#X connect 264 0 1 0;
#X connect 265 0 264 0;
#X connect 266 0 21 3;
#X connect 267 0 266 0;
#X connect 268 0 7 0;
#X connect 268 1 7 1;
