#N canvas 382 234 431 135 12;
#X obj -121 471 *~;
#X floatatom -249 272 0 0 0 0 - - -;
#X obj -251 482 +~;
#X floatatom 185 430 0 0 0 0 - - -;
#X obj 39 673 line~;
#X obj 39 614 \$1 \$1;
#X obj 173 542 loadbang;
#X obj -260 686 dac~;
#X obj -252 613 *~;
#X obj -121 409 osc~ 5;
#X obj 24 586 hsl 128 15 0 1 0 0 empty empty empty -2 -8 0 10 -262144
-1 -1 9286 1;
#X obj 187 286 vsl 15 128 0 11 0 0 empty empty empty 0 -9 0 10 -262144
-1 -1 2353 1;
#X text 142 238 vibrato;
#X text 85 543 volume;
#X obj -251 209 mtof;
#X text -96 211 glide;
#X obj -251 407 line;
#X obj -255 341 \$1 \$1;
#X msg -123 322 \$1;
#X obj -114 168 vsl 15 128 0 600 0 0 empty empty empty 0 -9 0 10 -262144
-1 -1 5025 1;
#X text -93 184 0-600;
#X obj -111 -276 counter;
#X obj 524 -294 bng 30 250 50 0 empty empty empty 17 7 0 10 -4034 -1
-1;
#X floatatom -113 -246 5 0 0 0 - - -;
#X obj -63 -330 bng 30 250 50 0 empty empty empty 17 7 0 10 -258113
-1 -1;
#X text 32 -292 reset;
#X text 211 288 0-11;
#X text 73 515 0-1;
#X text -469 -290 note trigger;
#X obj -285 -144 sel 1 2 3 4 5 6 7 8 9 10 11 12 13 14 15 16 17 18 19
20 21 22 23 24 25 26 27 28 29 30 31 32 33 34 35 36 37 38 39 40 41;
#X text -611 -135 sequence of our notes;
#X floatatom 393 707 5 0 0 0 - - -;
#X msg 172 598 150;
#X obj 510 50 - 70;
#X obj -277 -329 r note;
#X obj 1169 488 *~;
#X floatatom 1041 289 0 0 0 0 - - -;
#X obj 1039 499 +~;
#X floatatom 1475 447 0 0 0 0 - - -;
#X obj 1329 690 line~;
#X obj 1327 650 \$1 \$1;
#X obj 1463 559 loadbang;
#X obj 1038 630 *~;
#X obj 1169 426 osc~ 5;
#X obj 1314 603 hsl 128 15 0 1 0 0 empty empty empty -2 -8 0 10 -262144
-1 -1 9286 1;
#X obj 1477 303 vsl 15 128 0 11 0 0 empty empty empty 0 -9 0 10 -262144
-1 -1 2353 1;
#X text 1432 255 vibrato;
#X text 1375 560 volume;
#X obj 936 159 mtof;
#X text 1194 228 glide;
#X obj 1039 424 line;
#X obj 1035 358 \$1 \$1;
#X msg 1167 339 \$1;
#X obj 1176 185 vsl 15 128 0 600 0 0 empty empty empty 0 -9 0 10 -262144
-1 -1 5025 1;
#X text 1197 201 0-600;
#X text 1501 305 0-11;
#X text 1363 532 0-1;
#X obj 1005 -127 sel 1 2 3 4 5 6 7 8 9 10 11 12 13 14 15 16 17 18 19
20 21 22 23 24 25 26 27 28 29 30 31 32 33 34 35 36 37 38 39 40 41;
#X text 679 -118 sequence of our notes;
#X obj 1683 445 r x;
#X obj 1688 513 m_scale 0 127 0 1;
#X floatatom 1687 580 5 0 0 0 - - -;
#X obj 1673 633 - 0.05;
#X obj 1685 702 hsl 128 15 0 1 0 0 empty empty empty -2 -8 0 10 -262144
-1 -1 0 1;
#X floatatom 1683 724 5 0 0 0 - - -;
#X msg 1462 615 150;
#X obj 1803 44 r y;
#X floatatom 1800 315 5 0 0 0 - - -;
#X obj 1800 67 - 70;
#X obj 1799 118 vsl 15 128 0 57 0 0 empty empty empty 0 -9 0 10 -262144
-1 -1 0 1;
#X obj 1349 139 m_scale 0 127 0 600;
#X obj 1349 82 r z;
#X text 62 -319 polyphonic welsh national anthem;
#X text -766 393 simon kilshaw;
#X floatatom -326 256 5 0 0 0 - - -;
#N canvas 213 45 707 750 controller 0;
#X floatatom 65 58 5 0 0 0 - - -;
#X floatatom -45 264 5 0 0 0 - - -;
#X msg 65 77 open 1;
#X obj 152 223 print;
#X floatatom 162 252 5 0 0 0 - - -;
#X floatatom 204 253 5 0 0 0 - - -;
#X msg 156 309 0 19 19;
#X obj -9 732 / 26000;
#X floatatom 6 770 5 0 0 0 - - -;
#X obj 6 807 vsl 15 128 0 1 0 0 empty empty empty 0 -9 0 10 -262144
-1 -1 12700 1;
#X obj 263 943 vsl 15 128 0 1 0 0 empty empty empty 0 -9 0 10 -262144
-1 -1 12471 1;
#X obj 354 586 vsl 15 128 0 1 0 0 empty empty empty 0 -9 0 10 -262144
-1 -1 5541 1;
#X obj 301 776 line~;
#X obj 346 738 \$1 \$1;
#X msg 392 734 100;
#X obj 424 725 loadbang;
#X floatatom 281 254 5 0 0 0 - - -;
#X floatatom 240 253 5 0 0 0 - - -;
#X floatatom 323 257 5 0 0 0 - - -;
#X floatatom 354 262 5 0 0 0 - - -;
#X msg 16 77 close;
#X obj 218 162 tgl 15 0 empty empty empty 17 7 0 10 -262144 -1 -1 0
1;
#X obj 67 1080 s voll;
#X obj -7 38 bng 15 250 50 0 redo empty empty 17 7 0 10 -262144 -1
-1;
#X text 11 37 reset;
#X msg 115 5 devices;
#X obj 317 201 print;
#X obj 348 452 + 32768;
#X obj 347 472 / 1600;
#X floatatom 344 545 5 0 0 0 - - -;
#X obj 6 115 comport 11 38400;
#X obj 190 439 + 32768;
#X floatatom 186 512 5 0 0 0 - - -;
#X obj 185 485 - 2;
#X obj 479 -115 + 32768;
#X obj 478 -95 / 1600;
#X floatatom 475 -22 5 0 0 0 - - -;
#X obj 474 -49 - 2;
#X obj 35 684 * -1;
#X obj 41 707 + 1;
#X obj 262 921 / 20;
#X obj 188 456 / 1200;
#X obj 343 518 - 1;
#X obj 344 569 / 20;
#X obj 216 135 > 850;
#X obj 325 226 sel 0;
#X obj 5 142 serialtest;
#X obj 513 926 * 16;
#X obj 510 968 s vib;
#X obj 265 1113 s glide;
#X obj 312 135 change;
#X obj 394 111 sel 1;
#X obj 398 146 bng 15 250 50 0 empty empty empty 17 7 0 10 -262144
-1 -1;
#X obj 385 182 s note;
#X obj 23 328 sel 0;
#X obj 26 302 change;
#X obj 28 376 bng 15 250 50 0 empty empty empty 17 7 0 10 -262144 -1
-1;
#X obj 32 411 s resetter;
#X floatatom 477 863 5 0 0 0 - - -;
#X obj 477 835 m_scale 0 0.5 1 0;
#X floatatom 89 973 5 0 0 0 - - -;
#X obj 263 1079 * 700;
#X obj 59 881 - 0.5;
#X floatatom 176 1072 5 0 0 0 - - -;
#X obj 87 1027 - 0.3;
#X obj 126 1057 - 0.4;
#X obj 100 799 / 5;
#X obj 65 936 m_scale 0 1 0 0.7;
#X floatatom 369 1095 5 0 0 0 - - -;
#X obj 398 1064 m_scale 300 400 0 400;
#X obj 358 1022 m_scale 300 700 0 400;
#X obj 37 37 makenote 64;
#X obj 37 37;
#X obj 37 37;
#X obj 37 37;
#X msg 37 37;
#X obj 449 1096 - 150;
#X obj 37 37;
#X obj 119 194 unpack 0 0 0 0 0 0 0 0 0;
#X connect 0 0 2 0;
#X connect 1 0 7 0;
#X connect 1 0 55 0;
#X connect 2 0 30 0;
#X connect 7 0 8 0;
#X connect 10 0 61 0;
#X connect 11 0 13 0;
#X connect 11 0 59 0;
#X connect 13 0 12 0;
#X connect 14 0 13 1;
#X connect 15 0 14 0;
#X connect 20 0 30 0;
#X connect 21 0 50 0;
#X connect 25 0 30 0;
#X connect 27 0 28 0;
#X connect 28 0 42 0;
#X connect 29 0 43 0;
#X connect 30 0 46 0;
#X connect 31 0 41 0;
#X connect 32 0 66 0;
#X connect 33 0 32 0;
#X connect 34 0 35 0;
#X connect 35 0 37 0;
#X connect 36 0 40 0;
#X connect 37 0 36 0;
#X connect 38 0 39 0;
#X connect 40 0 38 0;
#X connect 40 0 10 0;
#X connect 41 0 33 0;
#X connect 42 0 29 0;
#X connect 43 0 11 0;
#X connect 44 0 21 0;
#X connect 46 0 78 0;
#X connect 47 0 48 0;
#X connect 50 0 51 0;
#X connect 51 0 52 0;
#X connect 52 0 53 0;
#X connect 54 0 56 0;
#X connect 55 0 54 0;
#X connect 56 0 57 0;
#X connect 58 0 47 0;
#X connect 59 0 58 0;
#X connect 60 0 64 0;
#X connect 61 0 76 0;
#X connect 62 0 67 0;
#X connect 64 0 65 0;
#X connect 65 0 22 0;
#X connect 65 0 63 0;
#X connect 66 0 9 0;
#X connect 66 0 62 0;
#X connect 67 0 60 0;
#X connect 70 0 49 0;
#X connect 70 0 69 0;
#X connect 70 0 68 0;
#X connect 76 0 70 0;
#X connect 78 0 45 0;
#X connect 78 0 1 0;
#X connect 78 1 44 0;
#X connect 78 3 31 0;
#X connect 78 4 27 0;
#X connect 78 5 34 0;
#X restore -701 -113 pd controller;
#X obj 59 65 r glide;
#X obj 510 -6 r vib;
#X obj 393 428 r voll;
#X floatatom 140 78 5 0 0 0 - - -;
#X floatatom 469 442 5 0 0 0 - - -;
#X obj 1507 244 r vib;
#X obj 1307 213 r glide;
#X obj 1310 565 r voll;
#X obj -22 -321 r resetter;
#X obj -176 -274 bng 15 250 50 0 empty empty empty 17 7 0 10 -262144
-1 -1;
#X obj 1794 250 m_scale 0 75 11 0;
#X obj 700 445 vsl 15 128 0 127 0 0 empty empty empty 0 -9 0 10 -262144
-1 -1 0 1;
#X obj 702 414 r z;
#X obj 695 577 m_scale 0 127 0 400;
#N canvas 89 266 1920 808 harm 0;
#X floatatom 1051 299 0 0 0 0 - - -;
#X obj 1049 509 +~;
#X floatatom 1485 457 0 0 0 0 - - -;
#X obj 1339 700 line~;
#X obj 1337 660 \$1 \$1;
#X obj 1473 569 loadbang;
#X obj 1048 640 *~;
#X obj 1179 436 osc~ 5;
#X obj 1324 613 hsl 128 15 0 1 0 0 empty empty empty -2 -8 0 10 -262144
-1 -1 9286 1;
#X obj 1487 313 vsl 15 128 0 11 0 0 empty empty empty 0 -9 0 10 -262144
-1 -1 2353 1;
#X text 1442 265 vibrato;
#X text 1385 570 volume;
#X obj 1049 236 mtof;
#X text 1204 238 glide;
#X obj 1049 434 line;
#X obj 1045 368 \$1 \$1;
#X msg 1177 349 \$1;
#X obj 1186 195 vsl 15 128 0 600 0 0 empty empty empty 0 -9 0 10 -262144
-1 -1 5025 1;
#X text 1207 211 0-600;
#X text 1511 315 0-11;
#X text 1373 542 0-1;
#X obj 1015 -117 sel 1 2 3 4 5 6 7 8 9 10 11 12 13 14 15 16 17 18 19
20 21 22 23 24 25 26 27 28 29 30 31 32 33 34 35 36 37 38 39 40 41;
#X text 689 -108 sequence of our notes;
#X obj 1693 455 r x;
#X obj 1698 523 m_scale 0 127 0 1;
#X floatatom 1697 590 5 0 0 0 - - -;
#X obj 1695 712 hsl 128 15 0 1 0 0 empty empty empty -2 -8 0 10 -262144
-1 -1 0 1;
#X floatatom 1693 734 5 0 0 0 - - -;
#X msg 1472 625 150;
#X obj 1810 21 r y;
#X floatatom 1810 325 5 0 0 0 - - -;
#X obj 1810 77 - 70;
#X obj 1809 128 vsl 15 128 0 57 0 0 empty empty empty 0 -9 0 10 -262144
-1 -1 0 1;
#X obj 1359 149 m_scale 0 127 0 600;
#X obj 1359 92 r z;
#X obj 1517 254 r vib;
#X obj 1317 223 r glide;
#X obj 1318 555 r voll;
#X obj 1804 260 m_scale 0 75 11 0;
#X obj 710 455 vsl 15 128 0 127 0 0 empty empty empty 0 -9 0 10 -262144
-1 -1 0 1;
#X obj 712 424 r z;
#X obj 705 587 m_scale 0 127 0 400;
#X obj 615 -95 inlet;
#X floatatom 930 290 5 0 0 0 - - -;
#X obj 1179 498 *~ 0.2;
#X obj 1633 92 mtof;
#X obj 1286 -325 sel 42 43 44 45 46 47 48 49 50 51 52 53 54 55 56 57
58 59 60 61 62 63 64 65 66 67 68;
#X msg 1819 14 48;
#X msg 1853 13 55;
#X msg 1890 11 55;
#X msg 1936 15 43;
#X msg 2009 14 43;
#X msg 2041 12 48;
#X obj 1683 643 - 0.05;
#X obj 1085 574 phasor~;
#X msg 1971 14 43;
#X obj 381 510 outlet;
#X msg 2042 -36 55;
#X msg 1720 -12 57;
#X obj 1013 573 osc~;
#X obj 983 615 *~ 0.4;
#X obj 1373 476 / 4;
#X obj 1078 687 lop~ 200;
#X obj 1208 641 r pass;
#X floatatom 1042 265 5 0 0 0 - - -;
#X obj 1091 250 ftom;
#X obj 832 246 mtof;
#X obj 825 197 ftom;
#X msg 648 -44 45;
#X msg 740 -45 45;
#X msg 828 -49 45;
#X msg 928 -52 45;
#X msg 1012 -51 45;
#X msg 1099 -51 45;
#X msg 1183 -54 45;
#X msg 1269 -53 50;
#X msg 1363 -51 50;
#X msg 1454 -52 50;
#X msg 1543 -51 52;
#X msg 649 -12 52;
#X msg 1631 -52 52;
#X msg 735 -13 45;
#X msg 821 -13 45;
#X msg 909 -12 45;
#X msg 995 -12 50;
#X msg 1078 -12 50;
#X msg 1159 -11 50;
#X msg 1246 -10 52;
#X msg 1331 -11 52;
#X msg 1414 -7 52;
#X msg 648 24 45;
#X msg 731 28 45;
#X msg 834 28 45;
#X msg 922 27 45;
#X msg 996 30 45;
#X msg 646 58 45;
#X msg 734 64 45;
#X msg 832 62 50;
#X msg 923 63 50;
#X msg 994 66 50;
#X msg 645 93 52;
#X msg 734 97 52;
#X msg 824 98 52;
#X msg 912 98 45;
#X msg 995 101 45;
#X msg 1047 101 45;
#X msg 1098 101 50;
#X msg 1155 117 50;
#X msg 1725 -123 50;
#X msg 1760 -123 52;
#X msg 1805 -124 52;
#X msg 1841 -124 52;
#X msg 1873 -124 45;
#X floatatom 1614 153 5 0 0 0 - - -;
#X obj 1663 138 ftom;
#X msg 1908 -64 45;
#X msg 1953 -65 45;
#X msg 1988 -65 45;
#X msg 2022 -65 45;
#X msg 1722 -34 50;
#X msg 1757 -34 50;
#X msg 1792 -34 50;
#X msg 1827 -34 52;
#X msg 1860 -34 52;
#X msg 1895 -34 52;
#X msg 1940 -35 45;
#X msg 1975 -35 45;
#X msg 2008 -35 45;
#X obj 1551 208 mtof;
#X obj 1544 159 ftom;
#X obj 1549 188 + 12;
#X obj 754 211 r nu;
#X obj 1059 724 dac~;
#X obj 830 226 + 14;
#X obj 1330 635 * 0.8;
#X msg 1500 -7 45;
#X floatatom 952 227 5 0 0 0 - - -;
#X floatatom 1576 81 5 0 0 0 - - -;
#X connect 0 0 15 0;
#X connect 1 0 54 0;
#X connect 1 0 59 0;
#X connect 2 0 61 0;
#X connect 3 0 6 1;
#X connect 4 0 3 0;
#X connect 5 0 28 0;
#X connect 6 0 62 0;
#X connect 7 0 44 0;
#X connect 8 0 134 0;
#X connect 9 0 2 0;
#X connect 12 0 56 0;
#X connect 12 0 65 0;
#X connect 14 0 1 0;
#X connect 15 0 14 0;
#X connect 16 0 15 1;
#X connect 17 0 16 0;
#X connect 21 0 68 0;
#X connect 21 1 69 0;
#X connect 21 2 70 0;
#X connect 21 3 71 0;
#X connect 21 4 72 0;
#X connect 21 5 73 0;
#X connect 21 6 74 0;
#X connect 21 7 75 0;
#X connect 21 8 76 0;
#X connect 21 9 77 0;
#X connect 21 10 78 0;
#X connect 21 11 80 0;
#X connect 21 12 79 0;
#X connect 21 13 81 0;
#X connect 21 14 82 0;
#X connect 21 15 83 0;
#X connect 21 16 84 0;
#X connect 21 17 85 0;
#X connect 21 18 86 0;
#X connect 21 19 87 0;
#X connect 21 20 88 0;
#X connect 21 21 89 0;
#X connect 21 22 135 0;
#X connect 21 23 90 0;
#X connect 21 24 91 0;
#X connect 21 25 92 0;
#X connect 21 26 93 0;
#X connect 21 27 94 0;
#X connect 21 28 95 0;
#X connect 21 29 96 0;
#X connect 21 30 97 0;
#X connect 21 31 98 0;
#X connect 21 32 99 0;
#X connect 21 33 100 0;
#X connect 21 34 101 0;
#X connect 21 35 102 0;
#X connect 21 36 103 0;
#X connect 21 37 104 0;
#X connect 21 38 105 0;
#X connect 21 39 106 0;
#X connect 21 40 107 0;
#X connect 23 0 24 0;
#X connect 24 0 25 0;
#X connect 25 0 53 0;
#X connect 26 0 27 0;
#X connect 26 0 8 0;
#X connect 28 0 4 1;
#X connect 29 0 31 0;
#X connect 31 0 32 0;
#X connect 32 0 38 0;
#X connect 34 0 33 0;
#X connect 35 0 9 0;
#X connect 36 0 17 0;
#X connect 37 0 8 0;
#X connect 38 0 30 0;
#X connect 38 0 9 0;
#X connect 39 0 41 0;
#X connect 40 0 39 0;
#X connect 41 0 17 0;
#X connect 42 0 21 0;
#X connect 42 0 46 0;
#X connect 43 0 12 0;
#X connect 44 0 1 1;
#X connect 45 0 114 0;
#X connect 45 0 129 0;
#X connect 46 0 108 0;
#X connect 46 1 109 0;
#X connect 46 2 110 0;
#X connect 46 3 111 0;
#X connect 46 4 112 0;
#X connect 46 5 115 0;
#X connect 46 6 116 0;
#X connect 46 7 117 0;
#X connect 46 8 118 0;
#X connect 46 9 119 0;
#X connect 46 10 120 0;
#X connect 46 11 121 0;
#X connect 46 12 122 0;
#X connect 46 13 123 0;
#X connect 46 14 124 0;
#X connect 46 15 125 0;
#X connect 46 16 126 0;
#X connect 46 17 127 0;
#X connect 46 18 57 0;
#X connect 46 19 58 0;
#X connect 46 20 47 0;
#X connect 46 21 48 0;
#X connect 46 22 49 0;
#X connect 46 23 50 0;
#X connect 46 24 55 0;
#X connect 46 25 51 0;
#X connect 46 26 52 0;
#X connect 47 0 45 0;
#X connect 48 0 45 0;
#X connect 49 0 45 0;
#X connect 50 0 45 0;
#X connect 51 0 45 0;
#X connect 52 0 45 0;
#X connect 53 0 26 0;
#X connect 54 0 6 0;
#X connect 55 0 45 0;
#X connect 57 0 45 0;
#X connect 58 0 45 0;
#X connect 60 0 6 0;
#X connect 61 0 44 1;
#X connect 62 0 132 1;
#X connect 63 0 62 1;
#X connect 65 0 64 0;
#X connect 66 0 0 0;
#X connect 67 0 133 0;
#X connect 68 0 12 0;
#X connect 69 0 12 0;
#X connect 70 0 12 0;
#X connect 71 0 12 0;
#X connect 72 0 12 0;
#X connect 73 0 12 0;
#X connect 74 0 12 0;
#X connect 75 0 12 0;
#X connect 76 0 12 0;
#X connect 77 0 12 0;
#X connect 78 0 12 0;
#X connect 79 0 12 0;
#X connect 80 0 12 0;
#X connect 81 0 12 0;
#X connect 82 0 12 0;
#X connect 83 0 12 0;
#X connect 84 0 12 0;
#X connect 85 0 12 0;
#X connect 86 0 12 0;
#X connect 87 0 12 0;
#X connect 88 0 12 0;
#X connect 89 0 12 0;
#X connect 90 0 12 0;
#X connect 91 0 12 0;
#X connect 92 0 12 0;
#X connect 93 0 12 0;
#X connect 94 0 12 0;
#X connect 95 0 12 0;
#X connect 96 0 12 0;
#X connect 97 0 12 0;
#X connect 98 0 12 0;
#X connect 99 0 12 0;
#X connect 100 0 12 0;
#X connect 101 0 12 0;
#X connect 102 0 12 0;
#X connect 103 0 12 0;
#X connect 104 0 12 0;
#X connect 105 0 12 0;
#X connect 106 0 12 0;
#X connect 107 0 12 0;
#X connect 108 0 45 0;
#X connect 109 0 45 0;
#X connect 110 0 45 0;
#X connect 111 0 45 0;
#X connect 112 0 45 0;
#X connect 114 0 113 0;
#X connect 115 0 45 0;
#X connect 116 0 45 0;
#X connect 117 0 45 0;
#X connect 118 0 45 0;
#X connect 119 0 45 0;
#X connect 120 0 45 0;
#X connect 121 0 45 0;
#X connect 122 0 45 0;
#X connect 123 0 45 0;
#X connect 124 0 45 0;
#X connect 125 0 45 0;
#X connect 126 0 45 0;
#X connect 127 0 45 0;
#X connect 129 0 130 0;
#X connect 130 0 128 0;
#X connect 131 0 133 0;
#X connect 133 0 66 0;
#X connect 134 0 4 0;
#X connect 135 0 12 0;
#X connect 136 0 12 0;
#X connect 137 0 45 0;
#X restore -267 -194 pd harm;
#X obj 75 169 s n;
#X obj 63 132 ftom;
#X obj -251 546 osc~;
#X obj 1039 563 osc~;
#X obj 1090 556 phasor~;
#X obj -159 566 phasor~;
#X obj 280 -261 clock;
#X msg 71 -233 0;
#X obj -644 594 makenote 64 127;
#X obj -644 627 noteout 1;
#X obj -704 212 makenote 64 127;
#X obj -704 245 noteout 3;
#X obj -554 239 makenote 64 127;
#X obj -554 272 noteout 2;
#X obj -641 159 ftom;
#X obj -695 163 ftom;
#X obj 17 364 * 100;
#X obj -57 583 * 64;
#X msg -423 -249 \; pd dsp 1;
#X msg 63 -78 62;
#X msg -791 520 64;
#X msg 1834 -91 57;
#X msg 1908 -90 57;
#N canvas 0 401 1920 1147 harm2 0;
#X floatatom 1061 309 0 0 0 0 - - -;
#X obj 1059 519 +~;
#X floatatom 1495 467 0 0 0 0 - - -;
#X obj 1349 710 line~;
#X obj 1347 670 \$1 \$1;
#X obj 1483 579 loadbang;
#X obj 1058 650 *~;
#X obj 1189 446 osc~ 5;
#X obj 1334 623 hsl 128 15 0 1 0 0 empty empty empty -2 -8 0 10 -262144
-1 -1 9286 1;
#X obj 1497 323 vsl 15 128 0 11 0 0 empty empty empty 0 -9 0 10 -262144
-1 -1 2353 1;
#X text 1452 275 vibrato;
#X text 1395 580 volume;
#X obj 1059 246 mtof;
#X text 1214 248 glide;
#X obj 1059 444 line;
#X obj 1055 378 \$1 \$1;
#X msg 1187 359 \$1;
#X obj 1196 205 vsl 15 128 0 600 0 0 empty empty empty 0 -9 0 10 -262144
-1 -1 5025 1;
#X text 1217 221 0-600;
#X text 1521 325 0-11;
#X text 1382 552 0-1;
#X obj 1025 -107 sel 1 2 3 4 5 6 7 8 9 10 11 12 13 14 15 16 17 18 19
20 21 22 23 24 25 26 27 28 29 30 31 32 33 34 35 36 37 38 39 40 41;
#X text 699 -98 sequence of our notes;
#X obj 1703 465 r x;
#X obj 1708 533 m_scale 0 127 0 1;
#X floatatom 1707 600 5 0 0 0 - - -;
#X obj 1705 722 hsl 128 15 0 1 0 0 empty empty empty -2 -8 0 10 -262144
-1 -1 0 1;
#X floatatom 1703 744 5 0 0 0 - - -;
#X msg 1482 635 150;
#X obj 1826 67 r y;
#X floatatom 1820 335 5 0 0 0 - - -;
#X obj 1820 87 - 70;
#X obj 1819 138 vsl 15 128 0 57 0 0 empty empty empty 0 -9 0 10 -262144
-1 -1 0 1;
#X obj 1369 159 m_scale 0 127 0 600;
#X obj 1369 102 r z;
#X obj 1527 264 r vib;
#X obj 1327 233 r glide;
#X obj 1328 565 r voll;
#X obj 1814 270 m_scale 0 75 11 0;
#X obj 720 465 vsl 15 128 0 127 0 0 empty empty empty 0 -9 0 10 -262144
-1 -1 0 1;
#X obj 722 434 r z;
#X obj 715 597 m_scale 0 127 0 400;
#X obj 625 -85 inlet;
#X floatatom 940 300 5 0 0 0 - - -;
#X obj 1189 508 *~ 0.2;
#X obj 1643 102 mtof;
#X obj 1693 653 - 0.05;
#X obj 1121 592 phasor~;
#X obj 391 520 outlet;
#X obj 1339 645 * 0.8;
#X floatatom 591 -37 5 0 0 0 - - -;
#X floatatom 883 267 5 0 0 0 - - -;
#X msg 844 38 46;
#X obj 997 286 ftom;
#X floatatom 1019 320 5 0 0 0 - - -;
#X obj 993 602 osc~;
#X obj 1383 486 / 4;
#X obj 1162 705 lop~ 200;
#X obj 1220 637 r pass;
#X msg 658 -34 39;
#X msg 750 -35 43;
#X msg 838 -39 46;
#X msg 938 -42 44;
#X msg 1022 -41 43;
#X msg 1109 -41 31;
#X msg 1193 -44 32;
#X msg 1279 -43 44;
#X msg 1553 -41 43;
#X msg 1641 -42 36;
#X msg 659 -2 38;
#X msg 745 -2 40;
#X msg 832 -3 36;
#X msg 919 -2 41;
#X msg 1005 -2 41;
#X msg 1088 -2 34;
#X msg 1169 0 36;
#X msg 1256 0 34;
#X msg 1342 -1 34;
#X msg 1424 2 34;
#X msg 658 34 39;
#X msg 741 38 43;
#X msg 932 38 44;
#X msg 1006 40 43;
#X msg 656 68 31;
#X msg 744 74 32;
#X msg 842 72 44;
#X msg 654 103 43;
#X msg 743 107 36;
#X msg 834 108 38;
#X msg 922 108 40;
#X msg 1005 111 36;
#X msg 1057 111 41;
#X msg 1108 111 41;
#X msg 1165 127 43;
#X msg 1716 -139 36;
#X msg 1751 -139 34;
#X msg 1796 -140 34;
#X msg 1832 -140 34;
#X obj 803 216 ftom;
#X obj 808 271 mtof;
#X msg 1373 -41 41;
#X msg 1464 -42 41;
#X msg 933 73 41;
#X msg 1004 76 41;
#X obj 1645 134 ftom;
#X obj 1650 189 mtof;
#X msg 1864 -140 39;
#X obj 1102 746 dac~;
#X obj 802 241 + 14;
#X obj 1307 534 tgl 15 0 empty empty empty 17 7 0 10 -262144 -1 -1
1 1;
#X obj 1234 547 spigot;
#X obj 1511 529 sel 0;
#X msg 1515 552 0;
#X text 1646 -135 not used;
#X msg 1918 -114 39;
#X msg 1998 -115 39;
#X obj 1445 528 sel 48;
#X floatatom 1731 130 5 0 0 0 - - -;
#X msg 1963 -115 35;
#X msg 2032 -115 35;
#X msg 1732 -84 35;
#X msg 1836 -84 42;
#X msg 1870 -84 42;
#X msg 1767 -84 37;
#X msg 1802 -84 39;
#X floatatom 1722 189 5 0 0 0 - - -;
#X floatatom 1600 146 5 0 0 0 - - -;
#X msg 1905 -84 42;
#X msg 1950 -85 42;
#X msg 1985 -85 42;
#X msg 2052 -86 44;
#X msg 1863 -37 44;
#X msg 1946 -35 44;
#X msg 1900 -39 44;
#X msg 1829 -36 44;
#X msg 1730 -62 44;
#X msg 2019 -36 42;
#X msg 2051 -38 44;
#X obj 1698 -198 sel 42 43 44 45 46 47 48 49 50 51 52 53 54 55 56 57
58 59 60 61 62 63 64 65 66 67 68 69;
#X msg 2018 -85 43;
#X obj 1756 -255 mtof;
#X msg 1754 -399 36;
#X msg 2076 -472 35;
#X msg 1845 -441 35;
#X msg 1949 -441 42;
#X msg 2094 -393 44;
#X msg 2132 -393 42;
#X msg 2164 -395 44;
#X msg 2205 -393 34;
#X obj 1812 -555 sel 70 71 72 73 74 75 76 77 78 79 80 81 82 83 84 85
86 87 88 89 90 91 92 93 94 95 96 97 96 99 100;
#X msg 2092 -36 42;
#X msg 1864 -496 35;
#X msg 1909 -497 35;
#X msg 1945 -497 35;
#X msg 1977 -497 35;
#X msg 2031 -471 35;
#X floatatom 1714 -285 5 0 0 0 - - -;
#X msg 2111 -472 37;
#X msg 1981 -36 46;
#X msg 2145 -472 37;
#X msg 1880 -441 42;
#X msg 1915 -441 42;
#X msg 1983 -441 35;
#X msg 2018 -441 35;
#X msg 2063 -442 35;
#X msg 2098 -440 40;
#X msg 2132 -442 40;
#X msg 2165 -443 40;
#X msg 1942 -393 42;
#X msg 1976 -396 42;
#X msg 1843 -419 42;
#X msg 2015 -397 35;
#X obj 1644 159 + 12;
#X msg 2059 -392 27;
#X floatatom 1861 -231 5 0 0 0 - - -;
#X msg 1510 3 34;
#X connect 0 0 15 0;
#X connect 1 0 47 0;
#X connect 2 0 56 0;
#X connect 3 0 6 1;
#X connect 4 0 3 0;
#X connect 5 0 28 0;
#X connect 6 0 57 0;
#X connect 7 0 44 0;
#X connect 8 0 49 0;
#X connect 9 0 2 0;
#X connect 12 0 48 0;
#X connect 12 0 51 0;
#X connect 12 0 53 0;
#X connect 12 0 98 0;
#X connect 14 0 1 0;
#X connect 15 0 14 0;
#X connect 16 0 15 1;
#X connect 17 0 16 0;
#X connect 21 0 59 0;
#X connect 21 1 60 0;
#X connect 21 2 61 0;
#X connect 21 3 62 0;
#X connect 21 4 63 0;
#X connect 21 5 64 0;
#X connect 21 6 65 0;
#X connect 21 7 66 0;
#X connect 21 8 100 0;
#X connect 21 9 101 0;
#X connect 21 10 67 0;
#X connect 21 11 68 0;
#X connect 21 12 69 0;
#X connect 21 13 70 0;
#X connect 21 14 71 0;
#X connect 21 15 72 0;
#X connect 21 16 73 0;
#X connect 21 17 74 0;
#X connect 21 18 75 0;
#X connect 21 19 76 0;
#X connect 21 20 77 0;
#X connect 21 21 78 0;
#X connect 21 22 175 0;
#X connect 21 23 79 0;
#X connect 21 24 80 0;
#X connect 21 25 52 0;
#X connect 21 26 81 0;
#X connect 21 27 82 0;
#X connect 21 28 83 0;
#X connect 21 29 84 0;
#X connect 21 30 85 0;
#X connect 21 31 102 0;
#X connect 21 32 103 0;
#X connect 21 33 86 0;
#X connect 21 34 87 0;
#X connect 21 35 88 0;
#X connect 21 36 89 0;
#X connect 21 37 90 0;
#X connect 21 38 91 0;
#X connect 21 39 92 0;
#X connect 21 40 93 0;
#X connect 23 0 24 0;
#X connect 24 0 25 0;
#X connect 25 0 46 0;
#X connect 26 0 27 0;
#X connect 26 0 8 0;
#X connect 28 0 4 1;
#X connect 29 0 31 0;
#X connect 31 0 32 0;
#X connect 32 0 38 0;
#X connect 34 0 33 0;
#X connect 35 0 9 0;
#X connect 36 0 17 0;
#X connect 37 0 110 0;
#X connect 38 0 30 0;
#X connect 38 0 9 0;
#X connect 39 0 41 0;
#X connect 40 0 39 0;
#X connect 41 0 17 0;
#X connect 42 0 21 0;
#X connect 42 0 50 0;
#X connect 42 0 111 0;
#X connect 42 0 116 0;
#X connect 42 0 138 0;
#X connect 42 0 149 0;
#X connect 43 0 12 0;
#X connect 44 0 1 1;
#X connect 45 0 104 0;
#X connect 45 0 125 0;
#X connect 46 0 26 0;
#X connect 47 0 6 0;
#X connect 49 0 4 0;
#X connect 52 0 12 0;
#X connect 53 0 54 0;
#X connect 55 0 6 0;
#X connect 56 0 44 1;
#X connect 57 0 107 0;
#X connect 58 0 57 1;
#X connect 59 0 12 0;
#X connect 60 0 12 0;
#X connect 61 0 12 0;
#X connect 62 0 12 0;
#X connect 63 0 12 0;
#X connect 64 0 12 0;
#X connect 65 0 12 0;
#X connect 66 0 12 0;
#X connect 67 0 12 0;
#X connect 68 0 12 0;
#X connect 69 0 12 0;
#X connect 70 0 12 0;
#X connect 71 0 12 0;
#X connect 72 0 12 0;
#X connect 73 0 12 0;
#X connect 74 0 12 0;
#X connect 75 0 12 0;
#X connect 76 0 12 0;
#X connect 77 0 12 0;
#X connect 78 0 12 0;
#X connect 79 0 12 0;
#X connect 80 0 12 0;
#X connect 81 0 12 0;
#X connect 82 0 12 0;
#X connect 83 0 12 0;
#X connect 84 0 12 0;
#X connect 85 0 12 0;
#X connect 86 0 12 0;
#X connect 87 0 12 0;
#X connect 88 0 12 0;
#X connect 89 0 12 0;
#X connect 90 0 12 0;
#X connect 91 0 12 0;
#X connect 92 0 12 0;
#X connect 93 0 12 0;
#X connect 94 0 45 0;
#X connect 95 0 45 0;
#X connect 96 0 45 0;
#X connect 97 0 45 0;
#X connect 98 0 108 0;
#X connect 99 0 0 0;
#X connect 100 0 12 0;
#X connect 101 0 12 0;
#X connect 102 0 12 0;
#X connect 103 0 12 0;
#X connect 104 0 126 0;
#X connect 104 0 172 0;
#X connect 105 0 0 0;
#X connect 106 0 45 0;
#X connect 108 0 99 0;
#X connect 109 0 110 1;
#X connect 110 0 8 0;
#X connect 111 0 112 0;
#X connect 112 0 109 0;
#X connect 112 0 8 0;
#X connect 114 0 45 0;
#X connect 115 0 45 0;
#X connect 116 0 109 0;
#X connect 117 0 45 0;
#X connect 118 0 45 0;
#X connect 119 0 45 0;
#X connect 120 0 45 0;
#X connect 121 0 45 0;
#X connect 122 0 45 0;
#X connect 123 0 45 0;
#X connect 124 0 45 0;
#X connect 127 0 45 0;
#X connect 128 0 45 0;
#X connect 129 0 45 0;
#X connect 130 0 45 0;
#X connect 131 0 45 0;
#X connect 132 0 45 0;
#X connect 133 0 45 0;
#X connect 134 0 45 0;
#X connect 135 0 45 0;
#X connect 136 0 45 0;
#X connect 137 0 45 0;
#X connect 138 0 94 0;
#X connect 138 1 95 0;
#X connect 138 2 96 0;
#X connect 138 3 97 0;
#X connect 138 4 106 0;
#X connect 138 5 114 0;
#X connect 138 6 118 0;
#X connect 138 7 115 0;
#X connect 138 8 119 0;
#X connect 138 9 120 0;
#X connect 138 10 123 0;
#X connect 138 11 124 0;
#X connect 138 12 121 0;
#X connect 138 13 122 0;
#X connect 138 14 127 0;
#X connect 138 15 128 0;
#X connect 138 16 129 0;
#X connect 138 17 139 0;
#X connect 138 18 130 0;
#X connect 138 19 135 0;
#X connect 138 20 134 0;
#X connect 138 21 131 0;
#X connect 138 22 133 0;
#X connect 138 23 132 0;
#X connect 138 24 158 0;
#X connect 138 25 136 0;
#X connect 138 26 137 0;
#X connect 138 27 150 0;
#X connect 139 0 45 0;
#X connect 140 0 104 0;
#X connect 140 0 174 0;
#X connect 142 0 140 0;
#X connect 143 0 140 0;
#X connect 144 0 140 0;
#X connect 145 0 140 0;
#X connect 146 0 140 0;
#X connect 147 0 140 0;
#X connect 148 0 140 0;
#X connect 149 1 151 0;
#X connect 149 2 152 0;
#X connect 149 3 153 0;
#X connect 149 4 154 0;
#X connect 149 5 155 0;
#X connect 149 6 142 0;
#X connect 149 7 157 0;
#X connect 149 8 159 0;
#X connect 149 9 143 0;
#X connect 149 10 160 0;
#X connect 149 11 161 0;
#X connect 149 12 144 0;
#X connect 149 13 162 0;
#X connect 149 14 163 0;
#X connect 149 15 164 0;
#X connect 149 16 165 0;
#X connect 149 17 166 0;
#X connect 149 18 167 0;
#X connect 149 19 170 0;
#X connect 149 20 168 0;
#X connect 149 21 169 0;
#X connect 149 22 171 0;
#X connect 149 23 173 0;
#X connect 149 24 145 0;
#X connect 149 25 146 0;
#X connect 149 26 147 0;
#X connect 149 27 148 0;
#X connect 150 0 45 0;
#X connect 151 0 140 0;
#X connect 152 0 140 0;
#X connect 153 0 140 0;
#X connect 154 0 140 0;
#X connect 155 0 140 0;
#X connect 156 0 140 0;
#X connect 157 0 140 0;
#X connect 158 0 45 0;
#X connect 159 0 140 0;
#X connect 160 0 140 0;
#X connect 161 0 140 0;
#X connect 162 0 140 0;
#X connect 163 0 140 0;
#X connect 164 0 140 0;
#X connect 165 0 140 0;
#X connect 166 0 140 0;
#X connect 167 0 140 0;
#X connect 168 0 140 0;
#X connect 169 0 140 0;
#X connect 170 0 140 0;
#X connect 171 0 140 0;
#X connect 172 0 105 0;
#X connect 173 0 140 0;
#X connect 175 0 12 0;
#X restore -371 -171 pd harm2;
#X obj 582 671 rev3~ 100 90 3000 20;
#X obj 1172 715 lop~ 200;
#X obj 262 638 lop~ 200;
#X obj 941 605 r pass;
#X obj 650 -285 s pass;
#X floatatom 645 -314 5 0 0 0 - - -;
#X floatatom 1264 582 5 0 0 0 - - -;
#X obj 636 -164 r voll;
#X obj 1319 625 * 0.6;
#X obj 578 -126 * 200;
#X floatatom -173 185 5 0 0 0 - - -;
#X msg -377 36 62;
#X msg 1830 -134 50;
#X msg -652 -71 52;
#X msg -560 -72 57;
#X msg -372 -78 64;
#X msg -472 -76 61;
#X msg -289 -78 61;
#X msg -201 -78 57;
#X msg -117 -81 57;
#X msg -31 -79 59;
#X msg 154 -79 59;
#X msg 243 -78 56;
#X msg 332 -79 52;
#X msg -651 -39 52;
#X msg -565 -40 57;
#X msg -478 -40 61;
#X msg -391 -38 57;
#X msg -305 -39 54;
#X msg -222 -39 50;
#X msg -141 -37 54;
#X msg -54 -37 52;
#X msg 31 -38 57;
#X msg 114 -35 56;
#X msg 200 -34 57;
#X msg -652 -3 52;
#X msg -569 1 57;
#X msg -465 1 61;
#X msg -379 1 64;
#X msg -304 3 61;
#X msg -654 31 57;
#X msg -566 37 57;
#X msg -468 35 59;
#X msg -306 39 59;
#X msg -655 66 56;
#X msg -567 69 52;
#X msg -476 71 52;
#X msg -388 71 57;
#X msg -305 74 61;
#X msg -253 74 57;
#X msg -202 74 54;
#X msg -156 75 50;
#X msg -673 444 54;
#X msg -638 444 52;
#X msg -593 443 57;
#X msg -558 443 56;
#X msg -525 443 57;
#X msg 638 -54 52;
#X msg 730 -55 45;
#X msg 818 -59 45;
#X msg 918 -58 40;
#X msg 1001 -61 45;
#X msg 1089 -61 49;
#X msg 1173 -64 37;
#X msg 1259 -63 38;
#X msg 1444 -62 38;
#X msg 1353 -61 42;
#X msg 1533 -61 40;
#X msg 1621 -62 44;
#X msg 639 -22 40;
#X msg 725 -23 37;
#X msg 812 -23 40;
#X msg 900 -22 37;
#X msg 985 -22 38;
#X msg 1068 -22 42;
#X msg 1149 -20 38;
#X msg 1236 -20 40;
#X msg 1321 -21 37;
#X msg 1404 -18 40;
#X msg 638 14 52;
#X msg 721 18 45;
#X msg 824 18 45;
#X msg 911 18 40;
#X msg 986 20 45;
#X msg 636 48 49;
#X msg 724 54 37;
#X msg 822 52 38;
#X msg 913 53 42;
#X msg 984 56 38;
#X msg 635 83 40;
#X msg 723 86 44;
#X msg 814 88 40;
#X msg 902 88 37;
#X msg 1088 91 38;
#X msg 978 103 40;
#X msg 1037 91 37;
#X msg 1133 92 42;
#X msg 1715 -133 38;
#X msg 1750 -133 40;
#X msg 1795 -134 37;
#X msg -605 490 52;
#X msg -560 489 57;
#X msg -525 489 61;
#X msg -492 489 64;
#X msg -756 520 62;
#X msg -721 520 61;
#X msg -686 522 59;
#X msg -618 520 62;
#X msg -573 519 62;
#X msg -538 519 61;
#X msg -505 519 59;
#X msg -471 518 57;
#X msg -793 542 61;
#X msg -762 543 61;
#X msg -728 542 61;
#X msg -691 540 59;
#X msg -645 544 57;
#X msg -610 543 59;
#X msg -572 543 64;
#X msg -540 541 63;
#X msg -501 547 64;
#X obj -679 402 sel 42 43 44 45 46 47 48 49 50 51 52 53 54 55 56 57
58 59 60 61 62 63 64 65 66 67 68 69 70;
#X msg -653 520 61;
#X obj 136 -206 sel 69;
#X obj 1030 703 dac~;
#X msg 1863 -134 49;
#X msg 1976 -90 61;
#X msg 1944 -90 57;
#X msg 1677 -59 61;
#X msg 1712 -59 59;
#X msg 1747 -59 57;
#X msg 1782 -59 56;
#X msg 1868 -59 59;
#X floatatom 1596 116 5 0 0 0 - - -;
#X obj 1032 181 ftom;
#X floatatom 1094 161 5 0 0 0 - - -;
#X msg 1815 -59 52;
#X msg 1913 -60 59;
#X msg 1948 -60 57;
#X msg 1981 -60 56;
#X msg 2015 -61 49;
#X msg 999 -241 46;
#X msg 1675 -37 52;
#X msg 1835 -3 50;
#X msg 1881 1 49;
#X obj 1709 -175 sel 42 43 44 45 46 47 48 49 50 51 52 53 54 55 56 57
58 59 60 61 62 63 64 65 66 67 68 69;
#X msg 1916 0 47;
#X msg 1954 0 47;
#X msg 1986 -2 57;
#X msg 2021 -3 56;
#X floatatom -581 191 5 0 0 0 - - -;
#X obj 1032 233 mtof;
#X obj 933 234 s nu;
#X obj 398 152 ftom;
#X obj 398 204 mtof;
#X obj 1032 205 + 2;
#X obj 398 176 + 2;
#X msg -189 -232 e;
#X obj 343 -327 counter;
#X floatatom -108 -332 5 0 0 0 - - -;
#X text -79 -197 92 notes?;
#X floatatom 964 200 5 0 0 0 - - -;
#X msg 1764 0 49;
#X msg 1801 0 49;
#X msg 1490 -17 33;
#X connect 0 0 2 1;
#X connect 1 0 17 0;
#X connect 2 0 96 0;
#X connect 3 0 0 1;
#X connect 4 0 8 1;
#X connect 5 0 4 0;
#X connect 6 0 32 0;
#X connect 8 0 117 0;
#X connect 9 0 0 0;
#X connect 10 0 5 0;
#X connect 10 0 108 0;
#X connect 11 0 3 0;
#X connect 11 0 107 0;
#X connect 14 0 105 0;
#X connect 14 0 268 0;
#X connect 16 0 2 0;
#X connect 16 0 92 0;
#X connect 16 0 91 0;
#X connect 17 0 16 0;
#X connect 18 0 17 1;
#X connect 19 0 18 0;
#X connect 21 0 23 0;
#X connect 22 0 21 0;
#X connect 23 0 29 0;
#X connect 23 0 57 0;
#X connect 23 0 90 0;
#X connect 23 0 236 0;
#X connect 23 0 238 0;
#X connect 23 0 260 0;
#X connect 24 0 109 0;
#X connect 24 0 98 0;
#X connect 24 0 273 3;
#X connect 29 0 128 0;
#X connect 29 1 129 0;
#X connect 29 2 131 0;
#X connect 29 3 130 0;
#X connect 29 4 132 0;
#X connect 29 5 133 0;
#X connect 29 6 134 0;
#X connect 29 7 135 0;
#X connect 29 8 110 0;
#X connect 29 9 136 0;
#X connect 29 10 137 0;
#X connect 29 11 138 0;
#X connect 29 12 139 0;
#X connect 29 13 140 0;
#X connect 29 14 141 0;
#X connect 29 15 142 0;
#X connect 29 16 143 0;
#X connect 29 17 144 0;
#X connect 29 18 145 0;
#X connect 29 19 146 0;
#X connect 29 20 147 0;
#X connect 29 21 148 0;
#X connect 29 22 149 0;
#X connect 29 23 150 0;
#X connect 29 24 151 0;
#X connect 29 25 152 0;
#X connect 29 26 153 0;
#X connect 29 27 154 0;
#X connect 29 28 155 0;
#X connect 29 29 156 0;
#X connect 29 30 157 0;
#X connect 29 31 126 0;
#X connect 29 32 158 0;
#X connect 29 33 159 0;
#X connect 29 34 160 0;
#X connect 29 35 161 0;
#X connect 29 36 162 0;
#X connect 29 37 163 0;
#X connect 29 38 164 0;
#X connect 29 39 165 0;
#X connect 29 40 166 0;
#X connect 32 0 5 1;
#X connect 34 0 22 0;
#X connect 34 0 273 0;
#X connect 35 0 37 1;
#X connect 36 0 51 0;
#X connect 37 0 95 0;
#X connect 38 0 35 1;
#X connect 39 0 42 1;
#X connect 40 0 39 0;
#X connect 41 0 65 0;
#X connect 42 0 116 0;
#X connect 43 0 35 0;
#X connect 44 0 123 0;
#X connect 45 0 38 0;
#X connect 48 0 103 0;
#X connect 48 0 249 0;
#X connect 50 0 37 0;
#X connect 51 0 50 0;
#X connect 52 0 51 1;
#X connect 53 0 52 0;
#X connect 57 0 172 0;
#X connect 57 1 173 0;
#X connect 57 2 174 0;
#X connect 57 3 175 0;
#X connect 57 4 176 0;
#X connect 57 5 177 0;
#X connect 57 6 178 0;
#X connect 57 7 179 0;
#X connect 57 8 181 0;
#X connect 57 9 180 0;
#X connect 57 10 182 0;
#X connect 57 11 183 0;
#X connect 57 12 184 0;
#X connect 57 13 185 0;
#X connect 57 14 186 0;
#X connect 57 15 187 0;
#X connect 57 16 188 0;
#X connect 57 17 189 0;
#X connect 57 18 190 0;
#X connect 57 19 191 0;
#X connect 57 20 192 0;
#X connect 57 21 193 0;
#X connect 57 22 279 0;
#X connect 57 23 194 0;
#X connect 57 24 195 0;
#X connect 57 25 196 0;
#X connect 57 26 197 0;
#X connect 57 27 198 0;
#X connect 57 28 199 0;
#X connect 57 29 200 0;
#X connect 57 30 201 0;
#X connect 57 31 202 0;
#X connect 57 32 203 0;
#X connect 57 33 204 0;
#X connect 57 34 205 0;
#X connect 57 35 206 0;
#X connect 57 36 207 0;
#X connect 57 37 209 0;
#X connect 57 38 210 0;
#X connect 57 39 208 0;
#X connect 57 40 211 0;
#X connect 59 0 60 0;
#X connect 60 0 61 0;
#X connect 61 0 62 0;
#X connect 62 0 63 0;
#X connect 63 0 64 0;
#X connect 63 0 44 0;
#X connect 63 0 10 0;
#X connect 65 0 40 1;
#X connect 66 0 68 0;
#X connect 68 0 69 0;
#X connect 69 0 86 0;
#X connect 71 0 70 0;
#X connect 74 0 14 0;
#X connect 76 0 79 0;
#X connect 76 0 19 0;
#X connect 77 0 33 0;
#X connect 77 0 11 0;
#X connect 78 0 80 0;
#X connect 78 0 10 0;
#X connect 81 0 45 0;
#X connect 82 0 53 0;
#X connect 83 0 44 0;
#X connect 83 0 121 0;
#X connect 84 0 24 0;
#X connect 85 0 21 0;
#X connect 86 0 67 0;
#X connect 86 0 45 0;
#X connect 86 0 11 0;
#X connect 87 0 89 0;
#X connect 88 0 87 0;
#X connect 89 0 53 0;
#X connect 89 0 19 0;
#X connect 90 0 106 0;
#X connect 93 0 8 0;
#X connect 94 0 42 0;
#X connect 95 0 42 0;
#X connect 96 0 8 0;
#X connect 98 0 21 3;
#X connect 99 0 100 0;
#X connect 99 1 100 1;
#X connect 101 0 102 0;
#X connect 101 1 102 1;
#X connect 103 0 104 0;
#X connect 103 1 104 1;
#X connect 105 0 99 0;
#X connect 105 0 265 0;
#X connect 106 0 101 0;
#X connect 107 0 103 2;
#X connect 107 0 101 2;
#X connect 107 0 99 2;
#X connect 108 0 103 1;
#X connect 108 0 101 1;
#X connect 108 0 99 1;
#X connect 110 0 14 0;
#X connect 111 0 14 0;
#X connect 112 0 48 0;
#X connect 113 0 48 0;
#X connect 115 0 7 0;
#X connect 115 1 7 1;
#X connect 116 0 239 0;
#X connect 116 0 239 1;
#X connect 117 0 115 0;
#X connect 117 0 7 0;
#X connect 117 0 7 1;
#X connect 118 0 116 1;
#X connect 118 0 117 1;
#X connect 120 0 119 0;
#X connect 122 0 124 0;
#X connect 123 0 40 0;
#X connect 124 0 120 0;
#X connect 125 0 14 0;
#X connect 126 0 14 0;
#X connect 127 0 48 0;
#X connect 128 0 14 0;
#X connect 129 0 14 0;
#X connect 130 0 14 0;
#X connect 131 0 14 0;
#X connect 132 0 14 0;
#X connect 133 0 14 0;
#X connect 134 0 14 0;
#X connect 135 0 14 0;
#X connect 136 0 14 0;
#X connect 137 0 14 0;
#X connect 138 0 14 0;
#X connect 139 0 14 0;
#X connect 140 0 14 0;
#X connect 141 0 14 0;
#X connect 142 0 14 0;
#X connect 143 0 14 0;
#X connect 144 0 14 0;
#X connect 145 0 14 0;
#X connect 146 0 14 0;
#X connect 147 0 14 0;
#X connect 148 0 14 0;
#X connect 149 0 14 0;
#X connect 150 0 14 0;
#X connect 151 0 14 0;
#X connect 152 0 14 0;
#X connect 153 0 14 0;
#X connect 154 0 14 0;
#X connect 155 0 14 0;
#X connect 156 0 14 0;
#X connect 157 0 14 0;
#X connect 158 0 14 0;
#X connect 159 0 14 0;
#X connect 160 0 14 0;
#X connect 161 0 14 0;
#X connect 162 0 14 0;
#X connect 163 0 14 0;
#X connect 164 0 14 0;
#X connect 165 0 14 0;
#X connect 166 0 14 0;
#X connect 167 0 14 0;
#X connect 168 0 14 0;
#X connect 169 0 14 0;
#X connect 170 0 14 0;
#X connect 171 0 14 0;
#X connect 172 0 48 0;
#X connect 173 0 48 0;
#X connect 174 0 48 0;
#X connect 175 0 48 0;
#X connect 176 0 48 0;
#X connect 177 0 48 0;
#X connect 178 0 48 0;
#X connect 179 0 48 0;
#X connect 180 0 48 0;
#X connect 181 0 48 0;
#X connect 182 0 48 0;
#X connect 183 0 48 0;
#X connect 184 0 48 0;
#X connect 185 0 48 0;
#X connect 186 0 48 0;
#X connect 187 0 48 0;
#X connect 188 0 48 0;
#X connect 189 0 48 0;
#X connect 190 0 48 0;
#X connect 191 0 48 0;
#X connect 192 0 48 0;
#X connect 193 0 48 0;
#X connect 194 0 48 0;
#X connect 195 0 48 0;
#X connect 196 0 48 0;
#X connect 197 0 48 0;
#X connect 198 0 48 0;
#X connect 199 0 48 0;
#X connect 200 0 48 0;
#X connect 201 0 48 0;
#X connect 202 0 48 0;
#X connect 203 0 48 0;
#X connect 204 0 48 0;
#X connect 205 0 48 0;
#X connect 206 0 48 0;
#X connect 207 0 48 0;
#X connect 208 0 48 0;
#X connect 209 0 48 0;
#X connect 210 0 48 0;
#X connect 211 0 48 0;
#X connect 212 0 48 0;
#X connect 213 0 48 0;
#X connect 214 0 48 0;
#X connect 215 0 14 0;
#X connect 216 0 14 0;
#X connect 217 0 14 0;
#X connect 218 0 14 0;
#X connect 219 0 14 0;
#X connect 220 0 14 0;
#X connect 221 0 14 0;
#X connect 222 0 14 0;
#X connect 223 0 14 0;
#X connect 224 0 14 0;
#X connect 225 0 14 0;
#X connect 226 0 14 0;
#X connect 227 0 14 0;
#X connect 228 0 14 0;
#X connect 229 0 14 0;
#X connect 230 0 14 0;
#X connect 231 0 14 0;
#X connect 232 0 14 0;
#X connect 233 0 14 0;
#X connect 234 0 14 0;
#X connect 235 0 14 0;
#X connect 236 0 167 0;
#X connect 236 1 168 0;
#X connect 236 2 169 0;
#X connect 236 3 170 0;
#X connect 236 4 171 0;
#X connect 236 5 215 0;
#X connect 236 6 216 0;
#X connect 236 7 217 0;
#X connect 236 8 218 0;
#X connect 236 9 111 0;
#X connect 236 10 219 0;
#X connect 236 11 220 0;
#X connect 236 12 221 0;
#X connect 236 13 237 0;
#X connect 236 14 222 0;
#X connect 236 15 223 0;
#X connect 236 16 224 0;
#X connect 236 17 225 0;
#X connect 236 18 226 0;
#X connect 236 19 227 0;
#X connect 236 20 228 0;
#X connect 236 21 229 0;
#X connect 236 22 230 0;
#X connect 236 23 231 0;
#X connect 236 24 232 0;
#X connect 236 25 233 0;
#X connect 236 26 234 0;
#X connect 236 27 235 0;
#X connect 237 0 14 0;
#X connect 238 0 98 0;
#X connect 240 0 48 0;
#X connect 241 0 48 0;
#X connect 242 0 48 0;
#X connect 243 0 48 0;
#X connect 244 0 48 0;
#X connect 245 0 48 0;
#X connect 246 0 48 0;
#X connect 247 0 48 0;
#X connect 249 0 267 0;
#X connect 249 0 270 0;
#X connect 249 0 276 0;
#X connect 250 0 48 0;
#X connect 251 0 48 0;
#X connect 252 0 48 0;
#X connect 253 0 48 0;
#X connect 254 0 48 0;
#X connect 255 0 48 0;
#X connect 256 0 21 3;
#X connect 257 0 48 0;
#X connect 258 0 48 0;
#X connect 259 0 48 0;
#X connect 260 0 212 0;
#X connect 260 1 213 0;
#X connect 260 2 214 0;
#X connect 260 3 127 0;
#X connect 260 4 240 0;
#X connect 260 5 112 0;
#X connect 260 6 113 0;
#X connect 260 7 242 0;
#X connect 260 8 241 0;
#X connect 260 9 243 0;
#X connect 260 10 244 0;
#X connect 260 11 245 0;
#X connect 260 12 246 0;
#X connect 260 13 251 0;
#X connect 260 14 247 0;
#X connect 260 15 252 0;
#X connect 260 16 253 0;
#X connect 260 17 254 0;
#X connect 260 18 255 0;
#X connect 260 19 257 0;
#X connect 260 20 277 0;
#X connect 260 21 278 0;
#X connect 260 22 258 0;
#X connect 260 23 259 0;
#X connect 260 24 261 0;
#X connect 260 25 262 0;
#X connect 260 26 263 0;
#X connect 260 27 264 0;
#X connect 261 0 48 0;
#X connect 262 0 48 0;
#X connect 263 0 48 0;
#X connect 264 0 48 0;
#X connect 266 0 36 0;
#X connect 268 0 271 0;
#X connect 269 0 1 0;
#X connect 270 0 266 0;
#X connect 271 0 269 0;
#X connect 273 0 274 0;
#X connect 274 0 114 0;
#X connect 277 0 48 0;
#X connect 278 0 48 0;
#X connect 279 0 48 0;
